<svg width="500" height="500" viewBox="0 0 500 500" fill="none" xmlns="http://www.w3.org/2000/svg">
<path d="M368.6 24.7L339.35 39.37C338.279 39.8254 337.365 40.5859 336.723 41.5568C336.082 42.5277 335.739 43.6661 335.74 44.83V58.51C335.714 70.9464 339.341 83.1167 346.17 93.51C351.44 101.51 358.43 111.8 370.06 117.67H375.3C388.25 113.67 397.91 103.2 403.81 94.2C410.638 83.8061 414.265 71.6362 414.24 59.2V44.83C414.24 43.6675 413.899 42.5305 413.259 41.5599C412.619 40.5894 411.709 39.828 410.64 39.37L377.32 25.17C375.83 24.54 370.08 24.07 368.6 24.7Z" fill="#E0E0E0"/>
<path d="M367.42 25.17L334.1 39.37C333.029 39.8254 332.115 40.5859 331.473 41.5568C330.831 42.5277 330.489 43.6661 330.49 44.83V58.51C330.491 71.1838 334.251 83.5725 341.295 94.1086C348.338 104.645 358.349 112.855 370.06 117.7C383 113.7 392.66 103.23 398.57 94.23C405.4 83.8256 409.026 71.6457 409 59.2V44.83C409.001 43.6661 408.659 42.5277 408.017 41.5568C407.375 40.5859 406.461 39.8254 405.39 39.37L372.07 25.17C371.334 24.8606 370.543 24.7012 369.745 24.7012C368.947 24.7012 368.156 24.8606 367.42 25.17Z" fill="#F5F5F5"/>
<path d="M408.89 55.49C408.935 55.6968 408.955 55.9084 408.95 56.12C408.95 56.59 409 57.19 409.03 57.93C409.06 58.67 409.11 59.68 409.03 60.8C408.95 61.92 409.03 63.2 408.85 64.6C408.67 66 408.62 67.6 408.33 69.19C408.2 70.01 408.1 70.86 407.93 71.73C407.76 72.6 407.55 73.48 407.36 74.39C406.438 78.3382 405.149 82.1916 403.51 85.9C401.826 89.5902 399.818 93.124 397.51 96.46C396.4 97.96 395.37 99.46 394.27 100.65C393.73 101.28 393.27 101.92 392.72 102.48L391.2 104.09C390.25 105.09 389.28 105.97 388.47 106.75C387.66 107.53 386.92 108.14 386.31 108.63L385 109.77C384.845 109.912 384.673 110.036 384.49 110.14C384.623 109.974 384.774 109.823 384.94 109.69L386.29 108.48C386.88 107.97 387.6 107.33 388.38 106.48C389.16 105.63 390.12 104.85 391.04 103.79L392.53 102.16C393.04 101.6 393.53 100.96 394.05 100.33C395.13 99.08 396.13 97.63 397.22 96.13C399.484 92.8092 401.458 89.2996 403.12 85.64C404.74 81.9588 406.029 78.1403 406.97 74.23L407.56 71.59C407.74 70.73 407.85 69.88 407.99 69.07C408.29 67.45 408.41 65.92 408.56 64.52C408.71 63.12 408.73 61.86 408.81 60.74C408.89 59.62 408.88 58.67 408.88 57.88C408.88 57.09 408.88 56.54 408.88 56.07C408.863 55.8768 408.867 55.6825 408.89 55.49Z" fill="#E0E0E0"/>
<path d="M367.26 85.23L348.15 70.04L353.45 63.37L366.27 73.56L384.99 52.61L391.34 58.29L367.26 85.23Z" fill="white"/>
<path d="M457.54 99.56H453.92V79.87C453.92 77.6422 453.035 75.5056 451.46 73.9303C449.884 72.355 447.748 71.47 445.52 71.47C443.292 71.47 441.156 72.355 439.58 73.9303C438.005 75.5056 437.12 77.6422 437.12 79.87V99.56H433.5V79.87C433.5 76.6874 434.764 73.6352 437.015 71.3847C439.265 69.1343 442.317 67.87 445.5 67.87C448.683 67.87 451.735 69.1343 453.985 71.3847C456.236 73.6352 457.5 76.6874 457.5 79.87L457.54 99.56Z" fill="#EBEBEB"/>
<path d="M458.63 86.2H432.4C430.699 86.2 429.32 87.579 429.32 89.28V108.51C429.32 110.211 430.699 111.59 432.4 111.59H458.63C460.331 111.59 461.71 110.211 461.71 108.51V89.28C461.71 87.579 460.331 86.2 458.63 86.2Z" fill="#EBEBEB"/>
<path d="M448 99.55C448.322 99.223 448.576 98.8355 448.748 98.4099C448.919 97.9843 449.005 97.5289 449 97.07C449.005 96.4046 448.824 95.7512 448.477 95.1833C448.13 94.6155 447.631 94.1559 447.037 93.8564C446.443 93.5569 445.777 93.4294 445.114 93.4884C444.451 93.5473 443.818 93.7902 443.286 94.1898C442.754 94.5895 442.344 95.1298 442.103 95.7499C441.862 96.37 441.799 97.0452 441.921 97.6993C442.043 98.3534 442.345 98.9603 442.794 99.4517C443.243 99.943 443.82 100.299 444.46 100.48L443.7 103.86H447.09L446.41 100.48C447.002 100.311 447.54 99.9904 447.97 99.55" fill="#FAFAFA"/>
<path d="M46.43 386.94C42.5462 384.51 38.1573 383.001 33.6 382.53C31.5 382.31 29.21 382.37 27.53 383.64C27.335 383.751 27.1735 383.913 27.0627 384.109C26.9518 384.304 26.8956 384.525 26.9 384.75C27.0025 385.067 27.2154 385.337 27.5 385.51C30.2242 387.454 33.4285 388.614 36.7655 388.867C40.1025 389.119 43.4448 388.452 46.43 386.94Z" fill="#E0E0E0"/>
<path d="M46.1 386.58C43.1295 384.396 40.3556 381.957 37.81 379.29C35.2592 376.603 33.4681 373.287 32.62 369.68C32.4511 369.146 32.4003 368.581 32.4711 368.025C32.5419 367.469 32.7326 366.935 33.03 366.46C39.63 371.62 44.82 378.3 46.1 386.58Z" fill="#E0E0E0"/>
<path d="M46.36 386.89C45.7514 383.28 45.8056 379.59 46.52 376C47.2544 372.381 49.3207 369.169 52.31 367C53.45 369.67 52.96 372.75 52.16 375.53C50.9166 379.85 48.9743 383.938 46.41 387.63" fill="#E0E0E0"/>
<path d="M52.84 398.5C48.953 399.128 45.3573 400.949 42.55 403.71C39.5973 406.393 37.5411 409.919 36.66 413.81C40.52 413.57 43.79 410.81 46.16 407.81C48.53 404.81 50.16 401.42 52.79 398.57" fill="#E0E0E0"/>
<path d="M54.25 400.35C52.7019 396.422 52.1591 392.169 52.6707 387.978C53.1824 383.787 54.7324 379.79 57.18 376.35C59.42 384.35 58.59 393.35 54.25 400.35Z" fill="#E0E0E0"/>
<path d="M62.8 410.54C59.2063 410.322 55.6276 411.164 52.5078 412.961C49.3881 414.758 46.8645 417.432 45.25 420.65C45.04 421.08 44.84 421.65 45.14 422.02C45.2904 422.168 45.475 422.276 45.6774 422.336C45.8797 422.395 46.0936 422.403 46.3 422.36C49.76 422.14 52.82 420.06 55.35 417.69C57.88 415.32 60.09 412.58 62.88 410.53" fill="#E0E0E0"/>
<path d="M62.53 410C60.6875 404.068 60.573 397.734 62.2 391.74C62.85 389.39 63.93 386.92 66.1 385.82C66.187 385.761 66.2852 385.721 66.3885 385.702C66.4917 385.683 66.5978 385.686 66.7 385.71C66.8755 385.803 67.0081 385.961 67.07 386.15C67.8035 387.791 68.1196 389.587 67.99 391.38C67.8618 393.169 67.5875 394.945 67.17 396.69C66.49 399.93 66.17 403.41 64.34 406.21C63.9222 406.884 63.5449 407.582 63.21 408.3C62.88 409.01 62.88 409.3 62.57 409.82" fill="#E0E0E0"/>
<path d="M85.18 413.36C84.4186 410.027 84.3937 406.568 85.107 403.224C85.8204 399.88 87.2547 396.732 89.31 394C89.6 393.61 89.99 393.2 90.48 393.24C91.22 393.31 91.41 394.3 91.38 395.04C91.0732 401.604 88.9246 407.95 85.18 413.35" fill="#E0E0E0"/>
<path d="M87.22 414.76C91.1828 415.695 95.3012 415.759 99.2911 414.948C103.281 414.136 107.047 412.469 110.33 410.06C106.463 408.115 102.041 407.575 97.82 408.53C93.64 409.53 89.82 411.35 87.22 414.76Z" fill="#E0E0E0"/>
<path d="M88.94 410.51C93.29 403.43 101.62 398.81 109.94 398.38C108.94 401.76 106.21 404.38 103.08 405.97C99.8714 407.409 96.4793 408.399 93 408.91C91.66 409.17 89.82 409.46 89 410.51" fill="#E0E0E0"/>
<path d="M85.61 389.88C86.9291 385.891 87.8273 381.776 88.29 377.6C88.7548 373.398 87.9022 369.156 85.85 365.46C81.79 373.31 81.38 382.46 85.49 390.31" fill="#E0E0E0"/>
<path d="M99.27 383C104.02 374.38 113.7 367.49 123.49 366.52C119.71 375.93 109.41 383.2 99.27 383Z" fill="#E0E0E0"/>
<path d="M96.29 384.67C103.36 385.75 109.39 390.27 116 393.01C117.388 393.674 118.925 393.967 120.46 393.86C121.173 393.851 121.866 393.623 122.446 393.208C123.026 392.793 123.465 392.21 123.704 391.538C123.942 390.866 123.969 390.136 123.781 389.448C123.592 388.76 123.198 388.147 122.65 387.69C121.714 386.814 120.613 386.134 119.41 385.69C112.21 382.69 104.48 382.62 96.9 384.44" fill="#E0E0E0"/>
<path d="M92.19 389.63C93.79 390.09 94.34 390.92 95.61 392C99.9485 395.686 105.083 398.315 110.61 399.68C111.18 399.82 111.93 399.88 112.22 399.37C112.51 398.86 112.15 398.37 111.83 397.97C109.436 395.154 106.327 393.036 102.83 391.84C99.38 390.55 96.39 389 92.27 389.34" fill="#E0E0E0"/>
<path d="M87.57 359.66C90.4723 362.335 93.9023 364.374 97.6394 365.645C101.377 366.916 105.338 367.391 109.27 367.04C109.635 367.052 109.992 366.927 110.27 366.69C110.82 366.09 110.16 365.17 109.53 364.69C103.15 359.69 95.42 357.69 87.59 359.69" fill="#E0E0E0"/>
<path d="M93.05 357.65C96.891 354.825 101.346 352.949 106.05 352.174C110.755 351.398 115.576 351.747 120.12 353.19C116.577 356.47 112.033 358.464 107.22 358.85C102.463 359.287 97.6659 358.881 93.05 357.65Z" fill="#E0E0E0"/>
<path d="M90.87 343.88C90.25 337.51 90.65 332.49 90.21 326.09C90.21 325.58 90.07 324.97 89.59 324.78C88.92 324.53 88.37 325.34 88.15 326.02C87.2219 328.985 86.9835 332.123 87.4532 335.194C87.9229 338.265 89.0881 341.188 90.86 343.74" fill="#E0E0E0"/>
<path d="M90.41 344.58C94.5865 341.901 98.1867 338.417 101 334.33C103.08 331.48 104.84 328.07 104.37 324.57C102.903 324.609 101.462 324.967 100.148 325.62C98.8334 326.273 97.6773 327.204 96.76 328.35C94.9439 330.655 93.623 333.311 92.88 336.15C92.04 338.95 91.45 341.83 90.45 344.58" fill="#E0E0E0"/>
<path d="M100.78 341.7C110.29 338.191 119.095 333.009 126.78 326.4C123.68 325.15 120.13 325.9 117.03 327.15C109.992 329.816 104.178 334.972 100.69 341.64" fill="#E0E0E0"/>
<path d="M93.33 348.07C98.1078 348.748 102.956 348.772 107.74 348.14C112.41 347.36 116.83 345.5 121.19 343.67C121.571 343.556 121.898 343.307 122.11 342.97C122.176 342.767 122.18 342.549 122.121 342.345C122.062 342.14 121.943 341.957 121.78 341.82C121.442 341.555 121.049 341.371 120.63 341.28C115.88 339.96 110.76 340.58 106.09 342.15C101.642 343.673 97.3655 345.658 93.33 348.07Z" fill="#E0E0E0"/>
<path d="M66 359.88C62.73 353.28 63 345.58 65.77 338.78C67.77 341.78 68 345.66 67.64 349.27C67.28 352.88 66.18 356.58 66.1 360.2" fill="#E0E0E0"/>
<path d="M52.91 353.29C48.8181 353.235 44.76 354.036 40.9956 355.641C37.2313 357.246 33.8437 359.62 31.05 362.61C35.1826 363.106 39.3683 362.332 43.05 360.39C46.6948 358.455 50.1327 356.153 53.31 353.52" fill="#E0E0E0"/>
<path d="M44.13 350.35C40.13 350.03 36.3 349.54 32.46 350.71C30.5226 351.255 28.7255 352.212 27.1913 353.515C25.6572 354.818 24.422 356.436 23.57 358.26C27.3362 358.562 31.1144 357.847 34.51 356.19C37.8855 354.536 41.1051 352.581 44.13 350.35Z" fill="#E0E0E0"/>
<path d="M57.13 350.49C53.54 348.14 49.85 345.74 45.67 344.76C41.49 343.78 36.67 344.51 33.73 347.66C37.11 349.66 41.22 349.88 45.15 349.88C49.08 349.88 53.88 349.83 57.58 351.14" fill="#E0E0E0"/>
<path d="M57.15 350.68C51.01 344.68 48.69 333.82 51.15 325.58C55.995 333 58.1156 341.871 57.15 350.68Z" fill="#E0E0E0"/>
<path d="M74 333.6C75.16 330.9 76 328.08 77 325.34C77.9467 322.56 79.4014 319.979 81.29 317.73C83.2033 315.45 85.9366 314.013 88.9 313.73C87.9534 317.884 86.1522 321.795 83.611 325.214C81.0698 328.633 77.8443 331.486 74.14 333.59" fill="#E0E0E0"/>
<path d="M71 337.16C69.09 334.52 66.87 330.94 64.27 328.97C61.67 327 58.27 325.81 55.12 326.56C56.7627 329.438 59.0528 331.894 61.8091 333.734C64.5653 335.574 67.712 336.747 71 337.16Z" fill="#E0E0E0"/>
<path d="M71.59 333.82C70.2289 330.672 69.2226 327.381 68.59 324.01C67.9616 320.598 68.5043 317.075 70.13 314.01C73.5 320.38 74.59 327.22 71.8 333.87" fill="#E0E0E0"/>
<path d="M74.07 314C75.98 307.69 81.76 303 88.01 300.9C88.7819 300.583 89.6195 300.459 90.45 300.54C90.8651 300.583 91.2581 300.748 91.5787 301.016C91.8993 301.283 92.133 301.639 92.25 302.04C92.48 303.11 91.59 304.04 90.75 304.79C85.8717 308.959 80.1967 312.092 74.07 314Z" fill="#E0E0E0"/>
<path d="M74.14 308.87C74.38 304.79 74.63 300.66 75.96 296.8C77.29 292.94 79.84 289.33 83.55 287.64C84.18 291.75 82.37 295.84 80.18 299.38C77.99 302.92 75.35 306.26 74.04 310.21" fill="#E0E0E0"/>
<path d="M74 311.67C72.42 307.07 72.26 301.22 69.5 297.21C67.57 294.41 64.5 292.5 62.83 289.53C61.8271 292.378 61.9669 295.503 63.22 298.25C64.4737 300.966 66.2006 303.438 68.32 305.55C70.32 307.73 72.1 309.37 74 311.67Z" fill="#E0E0E0"/>
<path d="M74.07 447.22C73.95 447.22 73.84 416.52 73.83 378.65C73.82 340.78 73.92 310.07 74.04 310.07C74.16 310.07 74.27 340.76 74.28 378.65C74.29 416.54 74.19 447.22 74.07 447.22Z" fill="#E0E0E0"/>
<path d="M100.9 355.24C100.533 355.426 100.148 355.574 99.75 355.68L96.57 356.75C93.89 357.66 90.21 358.98 86.22 360.62C82.23 362.26 78.53 363.69 76.41 365.53C75.551 366.234 74.8664 367.127 74.41 368.14C74.1 368.86 74.05 369.3 74.01 369.3C73.97 369.3 74.01 369.18 74.01 368.97C74.0608 368.667 74.1378 368.369 74.24 368.08C74.6405 367.009 75.3002 366.054 76.16 365.3C77.4427 364.216 78.8781 363.326 80.42 362.66C82.12 361.86 84.01 361.03 86.01 360.21C90.01 358.57 93.72 357.29 96.43 356.45C97.79 356.03 98.89 355.72 99.66 355.51C100.064 355.381 100.479 355.291 100.9 355.24Z" fill="#E0E0E0"/>
<path d="M109.7 333.64C109.606 333.768 109.495 333.882 109.37 333.98L108.37 334.91L104.69 338.25L92.45 349.15C87.67 353.41 83.54 357.47 80.68 360.53C79.24 362.06 78.11 363.33 77.34 364.21L76.45 365.21C76.357 365.336 76.2458 365.447 76.12 365.54C76.1946 365.4 76.2852 365.269 76.39 365.15C76.57 364.9 76.84 364.53 77.21 364.08C77.94 363.16 79.04 361.86 80.45 360.3C84.1437 356.262 88.0492 352.423 92.15 348.8C96.95 344.56 101.31 340.74 104.48 338C106.04 336.66 107.32 335.57 108.25 334.76L109.25 333.9C109.387 333.793 109.539 333.706 109.7 333.64Z" fill="#E0E0E0"/>
<path d="M87.31 353.48C87.18 353.42 88.18 351.12 89.18 348.2C90.18 345.28 90.65 342.83 90.78 342.85C90.6763 344.73 90.2781 346.583 89.6 348.34C89.1705 349.586 88.6731 350.808 88.11 352C87.9091 352.526 87.6402 353.024 87.31 353.48Z" fill="#E0E0E0"/>
<path d="M74.1 372.06C73.8197 371.808 73.5712 371.522 73.36 371.21L71.47 368.79C69.89 366.74 67.7 363.91 65.24 360.79C62.78 357.67 60.53 354.92 58.89 352.91L57 350.55C56.747 350.27 56.5225 349.965 56.33 349.64C56.6219 349.88 56.8899 350.148 57.13 350.44C57.62 350.97 58.32 351.76 59.13 352.74C60.83 354.74 63.13 357.44 65.59 360.54C68.05 363.64 70.2 366.54 71.72 368.6C72.49 369.6 73.09 370.51 73.5 371.11C73.7318 371.405 73.9328 371.724 74.1 372.06Z" fill="#E0E0E0"/>
<path d="M68.21 364.51C67.0244 363.198 66.1795 361.615 65.75 359.9C65.2822 358.394 65.0924 356.814 65.19 355.24H65.39C65.3627 355.431 65.2981 355.614 65.2 355.78C65.2 355.78 65.2 355.57 65.2 355.21H65.4C65.4935 356.744 65.755 358.263 66.18 359.74C66.7408 361.377 67.4192 362.971 68.21 364.51Z" fill="#E0E0E0"/>
<path d="M60.62 355C60.088 354.6 59.5107 354.264 58.9 354C57.3521 353.533 55.7222 353.404 54.12 353.62C52.4975 353.738 50.8882 353.996 49.31 354.39C48.6541 354.592 47.9861 354.752 47.31 354.87C47.8939 354.51 48.5321 354.247 49.2 354.09C50.7833 353.6 52.4171 353.291 54.07 353.17C55.7288 352.95 57.4162 353.132 58.99 353.7C59.6675 353.931 60.2437 354.391 60.62 355Z" fill="#E0E0E0"/>
<path d="M58.82 352.64C58.82 352.71 57.82 352.24 56.18 351.64C51.9064 350.186 47.3332 349.842 42.89 350.64C41.19 350.94 40.17 351.26 40.14 351.19C40.3551 351.052 40.5916 350.95 40.84 350.89C41.494 350.661 42.1621 350.474 42.84 350.33C45.0746 349.84 47.3688 349.678 49.65 349.85C51.9272 350.028 54.1669 350.533 56.3 351.35C56.9441 351.597 57.5721 351.884 58.18 352.21C58.4141 352.32 58.63 352.465 58.82 352.64Z" fill="#E0E0E0"/>
<path d="M74 342.85C73.2171 340.667 72.5757 338.436 72.08 336.17C71.434 333.941 70.933 331.673 70.58 329.38C71.3638 331.564 72.0084 333.795 72.51 336.06C73.1501 338.289 73.6478 340.557 74 342.85Z" fill="#E0E0E0"/>
<path d="M74.16 342.85C73.5453 341.468 72.8335 340.131 72.03 338.85C71.1295 337.637 70.0739 336.548 68.89 335.61C69.3364 335.724 69.7504 335.94 70.1 336.24C70.9913 336.888 71.7657 337.682 72.39 338.59C73.3454 339.829 73.9561 341.299 74.16 342.85Z" fill="#E0E0E0"/>
<path d="M74.07 430.85C74.07 430.85 73.93 430.11 73.58 428.85C73.0897 427.015 72.4198 425.233 71.58 423.53C68.6233 417.976 64.9668 412.824 60.7 408.2C58.27 405.42 55.91 402.8 53.91 400.29C52.1097 398.087 50.4847 395.747 49.05 393.29C48.0851 391.63 47.2653 389.891 46.6 388.09C46.37 387.45 46.21 386.95 46.12 386.61C46.0615 386.437 46.018 386.26 45.99 386.08C45.99 386.08 46.25 386.78 46.76 388.03C47.4866 389.791 48.3422 391.495 49.32 393.13C50.7853 395.548 52.4228 397.857 54.22 400.04C56.22 402.52 58.6 405.12 61.03 407.9C65.3279 412.552 68.9745 417.767 71.87 423.4C72.7058 425.129 73.3528 426.943 73.8 428.81C73.9184 429.318 74.0086 429.832 74.07 430.35C74.0853 430.516 74.0853 430.684 74.07 430.85Z" fill="#E0E0E0"/>
<path d="M98.32 403.47C97.9092 403.728 97.4853 403.965 97.05 404.18C95.8977 404.824 94.7947 405.553 93.75 406.36C92.2023 407.557 90.7543 408.878 89.42 410.31C87.9 411.91 86.34 413.77 84.74 415.77C81.55 419.77 78.56 423.33 76.74 426.16C75.83 427.56 75.17 428.74 74.74 429.57C74.5345 430.011 74.3007 430.439 74.04 430.85C74.04 430.85 74.04 430.72 74.16 430.49C74.28 430.26 74.38 429.92 74.58 429.49C75.1476 428.288 75.7888 427.123 76.5 426C78.9291 422.353 81.5633 418.848 84.39 415.5C85.99 413.5 87.58 411.64 89.13 410.03C90.4939 408.604 91.9758 407.296 93.56 406.12C94.6406 405.311 95.7919 404.602 97 404C97.3243 403.834 97.6583 403.687 98 403.56C98.2067 403.48 98.3134 403.45 98.32 403.47Z" fill="#E0E0E0"/>
<path d="M98.79 412.35C97.9039 412.544 97.0049 412.675 96.1 412.74C93.9421 412.961 91.8095 413.383 89.73 414C87.6731 414.668 85.7454 415.683 84.03 417C82.72 418 82.1 418.85 82.03 418.81C81.96 418.77 82.13 418.56 82.42 418.19C82.8377 417.668 83.3067 417.189 83.82 416.76C85.5213 415.339 87.4803 414.26 89.59 413.58C91.6955 412.952 93.8666 412.569 96.06 412.44C96.9653 412.326 97.8792 412.296 98.79 412.35Z" fill="#E0E0E0"/>
<path d="M82.82 417.82C82.68 417.74 83.89 415.89 84.82 413.4C85.75 410.91 85.91 408.69 86.06 408.72C86.1454 409.196 86.1454 409.684 86.06 410.16C85.9236 411.318 85.6621 412.458 85.28 413.56C84.8687 414.648 84.346 415.69 83.72 416.67C83.4875 417.102 83.1831 417.491 82.82 417.82Z" fill="#E0E0E0"/>
<path d="M106.17 379.61C106.04 379.709 105.895 379.786 105.74 379.84L104.48 380.41C103.92 380.65 103.25 380.95 102.48 381.35C101.71 381.75 100.83 382.15 99.91 382.7L98.45 383.53C97.94 383.83 97.45 384.17 96.9 384.53C95.82 385.18 94.74 385.99 93.58 386.81C91.129 388.67 88.8163 390.705 86.66 392.9C84.544 395.119 82.5953 397.493 80.83 400C80.04 401.19 79.27 402.3 78.65 403.4C78.34 403.94 78.01 404.46 77.73 404.98L77 406.48C76.48 407.42 76.11 408.32 75.74 409.09C75.37 409.86 75.09 410.54 74.87 411.09C74.65 411.64 74.48 412.03 74.34 412.37C74.2851 412.523 74.2148 412.671 74.13 412.81C74.1491 412.648 74.1929 412.489 74.26 412.34L74.71 411.03C74.91 410.46 75.16 409.76 75.51 408.98C75.86 408.2 76.21 407.28 76.72 406.33C76.96 405.84 77.22 405.33 77.48 404.81C77.74 404.29 78.07 403.81 78.39 403.21C79 402.09 79.76 400.97 80.54 399.77C84.0501 394.638 88.4012 390.134 93.41 386.45C94.58 385.63 95.68 384.83 96.77 384.19C97.32 383.86 97.83 383.51 98.34 383.19L99.83 382.37C100.77 381.84 101.67 381.45 102.44 381.08C103.091 380.755 103.759 380.465 104.44 380.21L105.74 379.71C105.88 379.663 106.024 379.629 106.17 379.61Z" fill="#E0E0E0"/>
<path d="M87 392.47C87.1584 391.854 87.5086 391.304 88 390.9C89.183 389.871 90.6921 389.293 92.26 389.27C93.7928 389.263 95.3118 389.559 96.73 390.14C97.3289 390.333 97.8978 390.609 98.42 390.96C97.8079 390.845 97.2084 390.671 96.63 390.44C95.2276 389.955 93.7539 389.708 92.27 389.71C90.7988 389.742 89.3762 390.243 88.21 391.14C87.7721 391.551 87.3675 391.995 87 392.47Z" fill="#E0E0E0"/>
<path d="M84.11 395.43C84.6792 394.177 85.0859 392.856 85.32 391.5C85.401 390.127 85.3103 388.75 85.05 387.4C85.3073 387.737 85.4789 388.132 85.55 388.55C86.0672 390.527 85.8208 392.626 84.86 394.43C84.48 395.11 84.15 395.46 84.11 395.43Z" fill="#E0E0E0"/>
<path d="M52.86 435.25C53.52 446.99 57.06 458.92 62.5 470.99H86.15C91.34 459.04 94.63 447.13 95.21 435.25H52.86Z" fill="#E0E0E0"/>
<path d="M91.38 454.24C91.38 454.36 83.59 454.46 73.99 454.46C64.39 454.46 56.6 454.36 56.6 454.24C56.6 454.12 64.38 454 74 454C83.62 454 91.38 454.12 91.38 454.24Z" fill="#FAFAFA"/>
<path d="M90.85 458.49C90.85 458.61 83.55 458.71 74.55 458.71C65.55 458.71 58.24 458.61 58.24 458.49C58.24 458.37 65.54 458.27 74.55 458.27C83.56 458.27 90.85 458.37 90.85 458.49Z" fill="#FAFAFA"/>
<path d="M62.88 443C63.1734 446.624 63.1734 450.266 62.88 453.89C62.5867 450.266 62.5867 446.624 62.88 443Z" fill="#FAFAFA"/>
<path d="M75.55 443C75.8434 446.754 75.8434 450.526 75.55 454.28C75.2567 450.526 75.2567 446.754 75.55 443Z" fill="#FAFAFA"/>
<path d="M87.45 442.86C87.7433 446.691 87.7433 450.539 87.45 454.37C87.1566 450.539 87.1566 446.691 87.45 442.86Z" fill="#FAFAFA"/>
<path d="M94.46 443C94.46 443.12 85.33 443.22 74.07 443.22C62.81 443.22 53.66 443.12 53.66 443C53.66 442.88 62.8 442.78 74.07 442.78C85.34 442.78 94.46 442.83 94.46 443Z" fill="#FAFAFA"/>
<path d="M461.39 333.53C463.554 332.574 465.391 331.004 466.672 329.016C467.954 327.027 468.624 324.706 468.6 322.34C468.6 315.66 463.6 310.22 457.31 310.2C451.02 310.18 445.94 315.56 445.92 322.2C445.875 324.584 446.536 326.929 447.821 328.938C449.106 330.947 450.957 332.531 453.14 333.49C435.69 336.12 436.48 355.08 436.48 355.08L477.75 355.27C477.75 355.27 478.69 336.14 461.39 333.53Z" fill="#EBEBEB"/>
<path d="M275.87 57.81C277.39 57.5115 278.791 56.778 279.902 55.6987C281.013 54.6194 281.787 53.2407 282.13 51.73C282.415 50.7605 282.499 49.7433 282.377 48.7402C282.256 47.7372 281.931 46.7694 281.423 45.8959C280.916 45.0224 280.235 44.2615 279.424 43.6595C278.612 43.0576 277.687 42.6272 276.704 42.3947C275.72 42.1621 274.7 42.1323 273.705 42.3069C272.71 42.4816 271.761 42.8571 270.915 43.4106C270.07 43.9641 269.346 44.684 268.788 45.5263C268.231 46.3686 267.85 47.3158 267.67 48.31C267.285 49.8262 267.359 51.4224 267.883 52.8964C268.406 54.3705 269.355 55.656 270.61 56.59C259.08 55.68 256.79 67.9 256.79 67.9L283.09 74.13C283.09 74.13 286.53 62 275.87 57.81Z" fill="#EBEBEB"/>
<path d="M462.52 159.61C463.781 158.821 464.783 157.68 465.402 156.327C466.02 154.974 466.228 153.47 466 152C465.925 151.027 465.651 150.08 465.195 149.217C464.74 148.354 464.112 147.593 463.351 146.982C462.59 146.371 461.712 145.923 460.771 145.665C459.83 145.406 458.845 145.344 457.879 145.481C456.913 145.618 455.985 145.951 455.153 146.461C454.32 146.97 453.601 147.645 453.04 148.444C452.479 149.242 452.087 150.147 451.889 151.103C451.692 152.058 451.692 153.044 451.89 154C452.074 155.488 452.696 156.888 453.677 158.022C454.658 159.156 455.954 159.973 457.4 160.37C446.79 163.58 448.98 175.3 448.98 175.3L474.66 171.71C474.66 171.71 473.51 159.68 462.52 159.61Z" fill="#F5F5F5"/>
<path d="M50.48 163.24L36.61 152.21L40.45 147.37L49.76 154.76L63.34 139.57L67.95 143.69L50.48 163.24Z" fill="#F5F5F5"/>
<path d="M470.66 471.34C470.66 471.49 370.51 471.6 247.01 471.6C123.51 471.6 23.34 471.49 23.34 471.34C23.34 471.19 123.46 471.08 247.01 471.08C370.56 471.08 470.66 471.2 470.66 471.34Z" fill="#263238"/>
<path d="M69.4 179.21L38.73 194.6C37.6174 195.085 36.6711 195.885 36.0082 196.901C35.3453 197.918 34.9948 199.106 35 200.32V214.67C34.9648 227.723 38.7655 240.499 45.93 251.41C51.46 259.83 58.79 270.59 70.98 276.74H76.48C90.06 272.6 100.19 261.57 106.38 252.13C113.547 241.22 117.352 228.444 117.32 215.39V200.32C117.318 199.101 116.959 197.91 116.288 196.893C115.616 195.877 114.66 195.079 113.54 194.6L78.55 179.71C77 179.05 71 178.55 69.4 179.21Z" fill="#95AAFF"/>
<path opacity="0.3" d="M69.4 179.21L38.73 194.6C37.6174 195.085 36.6711 195.885 36.0082 196.901C35.3453 197.918 34.9948 199.106 35 200.32V214.67C34.9648 227.723 38.7655 240.499 45.93 251.41C51.46 259.83 58.79 270.59 70.98 276.74H76.48C90.06 272.6 100.19 261.57 106.38 252.13C113.547 241.22 117.352 228.444 117.32 215.39V200.32C117.318 199.101 116.959 197.91 116.288 196.893C115.616 195.877 114.66 195.079 113.54 194.6L78.55 179.71C77 179.05 71 178.55 69.4 179.21Z" fill="black"/>
<path d="M68.17 179.71L33.22 194.6C32.0996 195.079 31.1443 195.877 30.4724 196.893C29.8005 197.91 29.4416 199.101 29.44 200.32V214.67C29.4408 227.96 33.3832 240.951 40.7686 251.999C48.1539 263.048 58.6504 271.658 70.93 276.74C84.5 272.6 94.63 261.57 100.83 252.13C107.997 241.22 111.802 228.444 111.77 215.39V200.32C111.769 199.102 111.412 197.912 110.742 196.895C110.072 195.879 109.119 195.081 108 194.6L73 179.71C72.2353 179.389 71.4143 179.224 70.585 179.224C69.7557 179.224 68.9347 179.389 68.17 179.71Z" fill="#95AAFF"/>
<path opacity="0.3" d="M78.8983 244.797C90.6948 240.222 96.5486 226.949 91.973 215.153C87.3974 203.356 74.1252 197.503 62.3287 202.078C50.5321 206.654 44.6784 219.926 49.2539 231.723C53.8295 243.519 67.1017 249.373 78.8983 244.797Z" fill="black"/>
<path d="M70.6 224.71C75.8523 224.71 80.11 220.452 80.11 215.2C80.11 209.948 75.8523 205.69 70.6 205.69C65.3478 205.69 61.09 209.948 61.09 215.2C61.09 220.452 65.3478 224.71 70.6 224.71Z" fill="white"/>
<path d="M53.24 238.37C54.7694 235.17 57.1832 232.475 60.1957 230.604C63.2083 228.733 66.6938 227.763 70.24 227.81C73.8763 227.811 77.4452 228.792 80.5707 230.65C83.6962 232.509 86.2628 235.176 88 238.37C88 238.37 82.39 246.67 70 246.37C66.7889 246.357 63.6206 245.633 60.7228 244.25C57.8249 242.866 55.2694 240.858 53.24 238.37Z" fill="white"/>
<path d="M93.51 223.44C93.4986 223.317 93.4986 223.193 93.51 223.07C93.51 222.8 93.51 222.44 93.42 221.99C93.42 221.75 93.42 221.48 93.42 221.19C93.42 220.9 93.32 220.58 93.27 220.19C93.1657 219.396 93.0053 218.611 92.79 217.84C92.2463 215.704 91.3868 213.662 90.24 211.78C88.7358 209.283 86.767 207.096 84.44 205.34C81.6289 203.202 78.3538 201.757 74.88 201.12C70.8918 200.386 66.7799 200.731 62.97 202.12C61.939 202.478 60.9362 202.912 59.97 203.42C59.0039 203.949 58.0751 204.544 57.19 205.2C56.2898 205.877 55.4315 206.609 54.62 207.39C53.8245 208.215 53.083 209.09 52.4 210.01C51.0001 211.906 49.9098 214.012 49.17 216.25C47.6098 220.889 47.6098 225.911 49.17 230.55C49.9054 232.79 50.996 234.896 52.4 236.79C53.0829 237.713 53.8244 238.592 54.62 239.42C55.4291 240.201 56.2875 240.929 57.19 241.6C58.9261 242.924 60.8598 243.967 62.92 244.69C66.7299 246.079 70.8418 246.424 74.83 245.69C77.9973 245.094 81.003 243.835 83.65 241.996C86.297 240.157 88.5257 237.78 90.19 235.02C91.3241 233.151 92.1702 231.121 92.7 229C92.9145 228.225 93.0748 227.437 93.18 226.64C93.18 226.3 93.3 225.98 93.33 225.64C93.36 225.3 93.33 225.08 93.33 224.84L93.42 223.75C93.4098 223.627 93.4098 223.503 93.42 223.38C93.4308 223.503 93.4308 223.627 93.42 223.75C93.42 224.03 93.42 224.39 93.42 224.85C93.42 225.09 93.42 225.36 93.42 225.65C93.42 225.94 93.34 226.27 93.29 226.65C93.21 227.458 93.0629 228.257 92.85 229.04C92.3426 231.206 91.5026 233.281 90.36 235.19C87.6425 239.829 83.3856 243.37 78.3288 245.197C73.2721 247.024 67.7351 247.021 62.68 245.19C61.6506 244.82 60.6482 244.379 59.68 243.87C58.6956 243.316 57.7531 242.691 56.86 242C55.9299 241.318 55.0478 240.573 54.22 239.77C53.424 238.939 52.6824 238.057 52 237.13C50.5604 235.194 49.4396 233.04 48.68 230.75C47.9205 228.386 47.5194 225.922 47.49 223.44C47.5178 220.957 47.9224 218.492 48.69 216.13C49.4421 213.839 50.5598 211.684 52 209.75C52.7031 208.81 53.4646 207.915 54.28 207.07C55.1048 206.268 55.9835 205.522 56.91 204.84C57.7967 204.163 58.7289 203.549 59.7 203C60.668 202.488 61.6704 202.043 62.7 201.67C66.5887 200.261 70.7832 199.916 74.85 200.67C78.0759 201.29 81.132 202.592 83.8138 204.489C86.4956 206.387 88.7411 208.835 90.4 211.67C91.5429 213.583 92.3828 215.66 92.89 217.83C93.1028 218.61 93.25 219.406 93.33 220.21C93.33 220.56 93.44 220.88 93.46 221.21V222.02C93.46 222.48 93.46 222.84 93.46 223.11C93.4858 223.218 93.5025 223.329 93.51 223.44Z" fill="#263238"/>
<path d="M111.65 211.5C111.697 211.72 111.72 211.945 111.72 212.17C111.72 212.65 111.72 213.28 111.8 214.07C111.88 214.86 111.88 215.9 111.8 217.07C111.8 217.66 111.8 218.28 111.8 218.95C111.8 219.62 111.8 220.32 111.67 221.05C111.53 222.52 111.43 224.14 111.12 225.86C110.99 226.72 110.88 227.61 110.7 228.52C110.52 229.43 110.3 230.36 110.1 231.32C109.138 235.454 107.799 239.491 106.1 243.38C104.344 247.249 102.246 250.954 99.83 254.45C98.67 256.02 97.6 257.54 96.44 258.85C95.88 259.51 95.36 260.18 94.81 260.77L93.22 262.45C92.22 263.56 91.22 264.45 90.36 265.24C89.6404 265.948 88.8826 266.615 88.09 267.24L86.61 268.44C86.4477 268.586 86.27 268.713 86.08 268.82C86.2222 268.653 86.3795 268.499 86.55 268.36L87.96 267.09C88.59 266.55 89.34 265.88 90.16 265.09C90.98 264.3 91.98 263.37 92.95 262.26L94.51 260.56C95.05 259.97 95.51 259.3 96.11 258.64C97.24 257.33 98.29 255.81 99.44 254.23C101.814 250.749 103.881 247.068 105.62 243.23C107.31 239.358 108.649 235.342 109.62 231.23L110.24 228.45C110.42 227.55 110.54 226.66 110.69 225.81C111.01 224.11 111.13 222.5 111.29 221.04C111.38 220.31 111.44 219.61 111.46 218.95L111.55 217.08C111.64 215.91 111.62 214.9 111.62 214.08C111.62 213.26 111.62 212.67 111.62 212.18C111.613 211.953 111.623 211.726 111.65 211.5Z" fill="#263238"/>
<path d="M354.81 471.34H118.35C116.801 471.314 115.272 470.983 113.851 470.365C112.43 469.748 111.144 468.857 110.068 467.742C108.991 466.628 108.145 465.312 107.578 463.87C107.01 462.429 106.732 460.889 106.76 459.34V97.92C106.732 96.3708 107.01 94.8314 107.578 93.3896C108.145 91.9479 108.991 90.6322 110.068 89.5177C111.144 88.4032 112.43 87.5118 113.851 86.8945C115.272 86.2772 116.801 85.946 118.35 85.92H354.81C356.359 85.946 357.887 86.2772 359.308 86.8947C360.728 87.5121 362.013 88.4037 363.089 89.5183C364.164 90.6329 365.01 91.9487 365.576 93.3904C366.143 94.8321 366.419 96.3713 366.39 97.92V459.36C366.417 460.907 366.138 462.444 365.57 463.883C365.003 465.323 364.157 466.636 363.082 467.749C362.006 468.861 360.722 469.751 359.303 470.367C357.884 470.983 356.357 471.314 354.81 471.34Z" fill="#263238"/>
<path d="M241.11 453.81C241.148 455.993 240.535 458.138 239.349 459.972C238.164 461.806 236.459 463.245 234.453 464.107C232.446 464.969 230.229 465.214 228.083 464.811C225.937 464.409 223.959 463.376 222.402 461.846C220.844 460.315 219.777 458.356 219.337 456.217C218.897 454.078 219.104 451.857 219.93 449.836C220.757 447.814 222.167 446.085 223.979 444.868C225.792 443.651 227.926 443 230.11 443C233.002 442.976 235.785 444.101 237.847 446.128C239.91 448.155 241.084 450.918 241.11 453.81Z" fill="#455A64"/>
<path d="M263.18 106.3H210.18C209.686 106.292 209.199 106.187 208.746 105.991C208.292 105.795 207.882 105.511 207.539 105.156C207.195 104.802 206.925 104.383 206.743 103.924C206.561 103.464 206.472 102.974 206.48 102.48C206.464 101.482 206.844 100.518 207.538 99.8C208.232 99.082 209.182 98.6684 210.18 98.65H263.18C264.178 98.6684 265.128 99.082 265.822 99.8C266.516 100.518 266.896 101.482 266.88 102.48C266.888 102.974 266.799 103.464 266.617 103.924C266.435 104.383 266.165 104.802 265.821 105.156C265.478 105.511 265.068 105.795 264.614 105.991C264.161 106.187 263.674 106.292 263.18 106.3Z" fill="#455A64"/>
<path d="M357.99 113.43H114.73V435.29H357.99V113.43Z" fill="white"/>
<path d="M357.99 113.43H347.61V435.29H357.99V113.43Z" fill="#F5F5F5"/>
<path d="M352.79 229.07C351.932 229.067 351.111 228.725 350.505 228.117C349.9 227.51 349.56 226.688 349.56 225.83V154.64C349.56 153.782 349.9 152.96 350.505 152.353C351.111 151.745 351.932 151.403 352.79 151.4C353.649 151.4 354.473 151.741 355.081 152.349C355.689 152.957 356.03 153.781 356.03 154.64V225.83C356.03 226.689 355.689 227.513 355.081 228.121C354.473 228.729 353.649 229.07 352.79 229.07Z" fill="#E0E0E0"/>
<path d="M326.26 186.68H146.9C145.531 186.68 144.219 186.136 143.251 185.169C142.284 184.201 141.74 182.889 141.74 181.52C141.74 180.151 142.284 178.839 143.251 177.871C144.219 176.904 145.531 176.36 146.9 176.36H326.26C327.629 176.36 328.941 176.904 329.909 177.871C330.876 178.839 331.42 180.151 331.42 181.52C331.42 182.889 330.876 184.201 329.909 185.169C328.941 186.136 327.629 186.68 326.26 186.68Z" fill="#E0E0E0"/>
<path d="M298.67 149H185.84C184.471 149 183.159 148.456 182.191 147.489C181.224 146.521 180.68 145.209 180.68 143.84C180.68 142.471 181.224 141.159 182.191 140.191C183.159 139.224 184.471 138.68 185.84 138.68H298.67C300.039 138.68 301.351 139.224 302.319 140.191C303.286 141.159 303.83 142.471 303.83 143.84C303.83 145.209 303.286 146.521 302.319 147.489C301.351 148.456 300.039 149 298.67 149Z" fill="#95AAFF"/>
<path d="M300.79 207.45H172.37C171.001 207.45 169.689 206.906 168.721 205.939C167.754 204.971 167.21 203.659 167.21 202.29C167.21 200.921 167.754 199.609 168.721 198.641C169.689 197.674 171.001 197.13 172.37 197.13H300.79C301.468 197.13 302.139 197.263 302.765 197.523C303.391 197.782 303.96 198.162 304.439 198.641C304.918 199.12 305.298 199.689 305.557 200.315C305.817 200.941 305.95 201.612 305.95 202.29C305.95 202.968 305.817 203.639 305.557 204.265C305.298 204.891 304.918 205.46 304.439 205.939C303.96 206.418 303.391 206.798 302.765 207.057C302.139 207.317 301.468 207.45 300.79 207.45Z" fill="#E0E0E0"/>
<path d="M242.81 298H144C142.632 298 141.319 297.456 140.351 296.489C139.384 295.521 138.84 294.209 138.84 292.84C138.84 292.162 138.974 291.491 139.233 290.865C139.492 290.239 139.872 289.67 140.351 289.191C140.831 288.712 141.399 288.332 142.025 288.073C142.651 287.813 143.322 287.68 144 287.68H242.81C243.488 287.68 244.159 287.813 244.785 288.073C245.411 288.332 245.98 288.712 246.459 289.191C246.938 289.67 247.318 290.239 247.577 290.865C247.837 291.491 247.97 292.162 247.97 292.84C247.97 294.209 247.426 295.521 246.459 296.489C245.491 297.456 244.179 298 242.81 298Z" fill="#E0E0E0"/>
<path d="M323.36 276.37H144C142.632 276.37 141.319 275.826 140.351 274.859C139.384 273.891 138.84 272.579 138.84 271.21C138.84 270.533 138.974 269.862 139.233 269.237C139.492 268.611 139.873 268.043 140.352 267.565C140.831 267.087 141.4 266.707 142.026 266.449C142.652 266.191 143.323 266.059 144 266.06H323.36C324.037 266.059 324.708 266.191 325.334 266.449C325.96 266.707 326.529 267.087 327.008 267.565C327.487 268.043 327.868 268.611 328.127 269.237C328.386 269.862 328.52 270.533 328.52 271.21C328.52 271.888 328.387 272.559 328.127 273.185C327.868 273.811 327.488 274.38 327.009 274.859C326.53 275.338 325.961 275.718 325.335 275.977C324.709 276.237 324.038 276.37 323.36 276.37Z" fill="#E0E0E0"/>
<path d="M323.36 335.65H166.37C163.52 335.65 161.21 337.96 161.21 340.81C161.21 343.66 163.52 345.97 166.37 345.97H323.36C326.21 345.97 328.52 343.66 328.52 340.81C328.52 337.96 326.21 335.65 323.36 335.65Z" fill="#E0E0E0"/>
<path d="M323.36 368H144C142.632 368 141.319 367.456 140.351 366.489C139.384 365.521 138.84 364.209 138.84 362.84C138.845 361.475 139.391 360.168 140.358 359.204C141.326 358.241 142.635 357.7 144 357.7H323.36C324.038 357.7 324.709 357.833 325.335 358.093C325.961 358.352 326.53 358.732 327.009 359.211C327.488 359.69 327.868 360.259 328.127 360.885C328.387 361.511 328.52 362.182 328.52 362.86C328.515 364.225 327.969 365.532 327.002 366.496C326.035 367.459 324.725 368 323.36 368Z" fill="#E0E0E0"/>
<path d="M323.36 390.42H144C142.632 390.42 141.319 389.876 140.351 388.909C139.384 387.941 138.84 386.629 138.84 385.26C138.84 383.891 139.384 382.579 140.351 381.611C141.319 380.644 142.632 380.1 144 380.1H323.36C324.038 380.1 324.709 380.233 325.335 380.493C325.961 380.752 326.53 381.132 327.009 381.611C327.488 382.09 327.868 382.659 328.127 383.285C328.387 383.911 328.52 384.582 328.52 385.26C328.52 386.629 327.976 387.941 327.009 388.909C326.041 389.876 324.729 390.42 323.36 390.42Z" fill="#E0E0E0"/>
<path d="M152.07 340.81C152.07 341.871 151.755 342.907 151.166 343.789C150.577 344.671 149.739 345.358 148.759 345.763C147.779 346.168 146.701 346.274 145.661 346.066C144.621 345.859 143.666 345.347 142.916 344.597C142.167 343.846 141.657 342.89 141.452 341.85C141.246 340.809 141.354 339.731 141.761 338.752C142.168 337.773 142.857 336.936 143.739 336.348C144.622 335.761 145.659 335.448 146.72 335.45C148.14 335.453 149.501 336.019 150.504 337.023C151.507 338.028 152.07 339.39 152.07 340.81Z" fill="#95AAFF"/>
<path d="M323.36 256.22H166.36C164.991 256.22 163.679 255.676 162.711 254.709C161.744 253.741 161.2 252.429 161.2 251.06C161.2 249.691 161.744 248.379 162.711 247.411C163.679 246.444 164.991 245.9 166.36 245.9H323.36C324.038 245.9 324.709 246.033 325.335 246.293C325.961 246.552 326.53 246.932 327.009 247.411C327.488 247.89 327.868 248.459 328.127 249.085C328.387 249.711 328.52 250.382 328.52 251.06C328.52 251.738 328.387 252.409 328.127 253.035C327.868 253.661 327.488 254.23 327.009 254.709C326.53 255.188 325.961 255.568 325.335 255.827C324.709 256.087 324.038 256.22 323.36 256.22Z" fill="#E0E0E0"/>
<path d="M146.72 256.42C149.68 256.42 152.08 254.02 152.08 251.06C152.08 248.1 149.68 245.7 146.72 245.7C143.76 245.7 141.36 248.1 141.36 251.06C141.36 254.02 143.76 256.42 146.72 256.42Z" fill="#95AAFF"/>
<path d="M318.35 423.23H278.1C275.92 423.23 273.829 422.364 272.288 420.822C270.746 419.281 269.88 417.19 269.88 415.01C269.88 412.83 270.746 410.739 272.288 409.198C273.829 407.656 275.92 406.79 278.1 406.79H318.35C320.53 406.79 322.621 407.656 324.162 409.198C325.704 410.739 326.57 412.83 326.57 415.01C326.57 417.19 325.704 419.281 324.162 420.822C322.621 422.364 320.53 423.23 318.35 423.23Z" fill="#95AAFF"/>
<path d="M111 35.35L69.28 56.28C67.7533 56.929 66.4512 58.0126 65.5355 59.3959C64.6199 60.7792 64.1311 62.4011 64.13 64.06V83.58C64.0806 101.345 69.2552 118.733 79.01 133.58C86.53 145 96.49 159.64 113.08 168H120.56C139.02 162.37 152.8 147.36 161.23 134.53C170.985 119.683 176.159 102.295 176.11 84.53V64.06C176.112 62.4056 175.629 60.7869 174.721 59.4041C173.813 58.0213 172.519 56.9351 171 56.28L123.44 36C121.32 35.13 113.12 34.45 111 35.35Z" fill="#95AAFF"/>
<path opacity="0.3" d="M111 35.35L69.28 56.28C67.7533 56.929 66.4512 58.0126 65.5355 59.3959C64.6199 60.7792 64.1311 62.4011 64.13 64.06V83.58C64.0806 101.345 69.2552 118.733 79.01 133.58C86.53 145 96.49 159.64 113.08 168H120.56C139.02 162.37 152.8 147.36 161.23 134.53C170.985 119.683 176.159 102.295 176.11 84.53V64.06C176.112 62.4056 175.629 60.7869 174.721 59.4041C173.813 58.0213 172.519 56.9351 171 56.28L123.44 36C121.32 35.13 113.12 34.45 111 35.35Z" fill="black"/>
<path d="M109.32 36L61.79 56.28C60.2645 56.9295 58.9637 58.0134 58.0497 59.3968C57.1358 60.7802 56.649 62.402 56.65 64.06V83.58C56.6524 101.655 62.0151 119.323 72.0596 134.35C82.1042 149.376 96.3795 161.087 113.08 168C131.54 162.37 145.32 147.36 153.74 134.53C163.499 119.685 168.674 102.296 168.62 84.53V64.06C168.621 62.402 168.134 60.7802 167.22 59.3968C166.306 58.0134 165.006 56.9295 163.48 56.28L116 36C114.945 35.5477 113.808 35.3145 112.66 35.3145C111.512 35.3145 110.375 35.5477 109.32 36Z" fill="#95AAFF"/>
<path d="M168.47 79.27C168.482 79.3462 168.482 79.4238 168.47 79.5C168.47 79.68 168.47 79.9 168.47 80.17C168.47 80.81 168.52 81.67 168.56 82.76C168.6 83.85 168.66 85.25 168.56 86.85C168.56 87.65 168.56 88.5 168.48 89.4C168.48 89.86 168.48 90.32 168.48 90.8C168.48 91.28 168.39 91.8 168.34 92.27C168.14 94.27 168.01 96.47 167.59 98.8C167.4 99.96 167.25 101.18 167.01 102.41C166.77 103.64 166.47 104.91 166.19 106.21C164.869 111.831 163.031 117.318 160.7 122.6C158.318 127.858 155.473 132.895 152.2 137.65C150.62 139.79 149.2 141.86 147.6 143.65C146.83 144.55 146.13 145.46 145.38 146.26L143.22 148.56C141.88 150.06 140.5 151.25 139.35 152.36C138.76 152.9 138.23 153.42 137.72 153.87L136.32 155L134.32 156.64L133.79 157.06C133.67 157.15 133.6 157.19 133.6 157.18C133.6 157.17 133.6 157.12 133.75 157.01L134.25 156.56L136.18 154.85L137.59 153.62C138.1 153.17 138.59 152.62 139.19 152.08C140.32 150.96 141.67 149.76 142.99 148.25L145.12 145.93C145.86 145.13 146.55 144.22 147.3 143.32C148.85 141.54 150.3 139.47 151.84 137.32C155.081 132.575 157.902 127.556 160.27 122.32C162.581 117.064 164.418 111.613 165.76 106.03C166.05 104.74 166.32 103.48 166.6 102.26C166.88 101.04 167 99.82 167.2 98.66C167.64 96.34 167.79 94.15 168.01 92.16C168.07 91.67 168.12 91.16 168.17 90.71C168.22 90.26 168.17 89.77 168.23 89.32C168.27 88.42 168.31 87.57 168.35 86.77C168.46 85.18 168.43 83.77 168.43 82.69V80.18V79.5C168.428 79.4215 168.442 79.3433 168.47 79.27Z" fill="#263238"/>
<path d="M131.46 105.5H126.39V77.91C126.301 74.8465 125.021 71.9384 122.823 69.803C120.624 67.6676 117.68 66.4732 114.615 66.4732C111.55 66.4732 108.606 67.6676 106.408 69.803C104.209 71.9384 102.929 74.8465 102.84 77.91V105.5H97.77V77.91C97.8771 73.5135 99.6989 69.3331 102.846 66.2615C105.994 63.1898 110.217 61.4705 114.615 61.4705C119.013 61.4705 123.236 63.1898 126.384 66.2615C129.531 69.3331 131.353 73.5135 131.46 77.91V105.5Z" fill="#F5F5F5"/>
<path d="M131.51 86.78H97.73C94.5213 86.78 91.92 89.3812 91.92 92.59V116.55C91.92 119.759 94.5213 122.36 97.73 122.36H131.51C134.719 122.36 137.32 119.759 137.32 116.55V92.59C137.32 89.3812 134.719 86.78 131.51 86.78Z" fill="white"/>
<path d="M131.51 122.36C132.018 122.306 132.523 122.219 133.02 122.1C134.231 121.75 135.295 121.014 136.048 120.002C136.801 118.991 137.202 117.761 137.19 116.5C137.19 115.33 137.19 114.06 137.19 112.69C137.19 109.96 137.19 106.85 137.19 103.41C137.19 99.97 137.19 96.22 137.19 92.18C137.115 91.1731 136.768 90.2054 136.187 89.3796C135.606 88.5538 134.812 87.9008 133.89 87.49C132.906 87.085 131.84 86.9204 130.78 87.01H127.42L97.73 87C96.482 86.9996 95.2703 87.4197 94.2906 88.1927C93.3108 88.9656 92.6201 90.0462 92.33 91.26C92.2003 91.8643 92.1465 92.4824 92.17 93.1V98.73C92.17 103.73 92.17 108.45 92.17 113C92.26 115.26 91.79 117.59 92.95 119.37C93.4636 120.244 94.2041 120.963 95.0932 121.451C95.9822 121.939 96.9867 122.177 98 122.14H109.25L125.54 122.23H129.96H131.11C131.243 122.217 131.377 122.217 131.51 122.23C131.377 122.245 131.243 122.245 131.11 122.23H129.96H125.54L109.25 122.31H98C97.1737 122.347 96.3487 122.214 95.5757 121.92C94.8028 121.626 94.0984 121.176 93.5061 120.599C92.9138 120.021 92.4462 119.329 92.1321 118.564C91.818 117.798 91.6641 116.977 91.68 116.15V113C91.68 108.45 91.68 103.68 91.68 98.73V93.14C91.65 92.4688 91.7071 91.7965 91.85 91.14C92.1749 89.8294 92.9324 88.6667 94 87.84C95.0764 86.9886 96.4077 86.5237 97.78 86.52H127.36H130.72C131.847 86.4339 132.979 86.6191 134.02 87.06C135.015 87.5041 135.87 88.2107 136.493 89.1038C137.117 89.997 137.486 91.0432 137.56 92.13C137.56 96.21 137.56 99.95 137.56 103.39C137.56 106.83 137.56 109.94 137.56 112.67C137.56 114.04 137.56 115.31 137.56 116.48C137.561 117.575 137.256 118.649 136.68 119.58C135.896 120.873 134.636 121.807 133.17 122.18C132.633 122.343 132.07 122.404 131.51 122.36Z" fill="#263238"/>
<path d="M118.1 105.49C118.558 105.034 118.921 104.491 119.168 103.894C119.415 103.297 119.541 102.656 119.54 102.01C119.546 101.078 119.291 100.164 118.805 99.3689C118.319 98.5742 117.62 97.9312 116.788 97.5123C115.956 97.0935 115.023 96.9155 114.095 96.9984C113.167 97.0813 112.281 97.4218 111.536 97.9816C110.791 98.5413 110.218 99.298 109.88 100.166C109.542 101.035 109.454 101.98 109.625 102.896C109.796 103.812 110.219 104.662 110.847 105.35C111.476 106.038 112.283 106.537 113.18 106.79L112.11 111.53H116.86L115.86 106.79C116.69 106.553 117.444 106.105 118.05 105.49" fill="#95AAFF"/>
<path d="M427.82 141.17V181.69C427.91 188.69 428.94 199.69 417.82 199.33C408.23 198.33 405.68 189.2 405.61 182.66C405.61 179.56 405.54 176.97 405.51 176.66C405.51 176.66 395.01 175.8 394.12 165.42C393.69 160.42 393.65 150.01 393.72 140.6C393.763 135.726 395.638 131.047 398.973 127.494C402.308 123.94 406.859 121.772 411.72 121.42L412.72 121.35C423.59 121.19 428 130.32 427.82 141.17Z" fill="#FFBF9D"/>
<path d="M405.54 176.66C410.337 176.292 414.928 174.556 418.77 171.66C418.77 171.66 416.03 179.49 405.6 179.31L405.54 176.66Z" fill="#FF9A6C"/>
<path d="M411.49 144.86C411.7 145.07 412.9 144.1 414.63 144.06C416.36 144.02 417.63 144.86 417.85 144.64C418.07 144.42 417.73 144.15 417.16 143.76C416.399 143.249 415.496 142.99 414.58 143.02C413.671 143.049 412.795 143.368 412.08 143.93C411.56 144.37 411.39 144.76 411.49 144.86Z" fill="#263238"/>
<path d="M411.46 149.77C411.481 150.138 411.646 150.483 411.919 150.73C412.192 150.977 412.552 151.106 412.92 151.09C413.099 151.091 413.277 151.057 413.443 150.988C413.609 150.92 413.759 150.818 413.885 150.691C414.011 150.563 414.11 150.411 414.176 150.244C414.242 150.078 414.274 149.899 414.27 149.72C414.247 149.355 414.083 149.013 413.812 148.767C413.541 148.52 413.186 148.389 412.82 148.4C412.641 148.4 412.463 148.435 412.297 148.504C412.132 148.573 411.981 148.675 411.855 148.802C411.728 148.929 411.628 149.08 411.561 149.246C411.493 149.413 411.459 149.591 411.46 149.77Z" fill="#263238"/>
<path d="M407.14 157C406.278 156.799 405.395 156.705 404.51 156.72C404.1 156.72 403.71 156.65 403.62 156.38C403.553 155.961 403.616 155.532 403.8 155.15C404.12 154.15 404.44 153.08 404.8 151.96C406.15 147.42 407.1 143.7 406.92 143.65C406.74 143.6 405.49 147.23 404.14 151.77C403.82 152.89 403.51 153.96 403.21 154.98C402.993 155.49 402.961 156.059 403.12 156.59C403.187 156.731 403.286 156.854 403.41 156.949C403.533 157.045 403.677 157.11 403.83 157.14C404.062 157.167 404.297 157.167 404.53 157.14C405.402 157.197 406.279 157.15 407.14 157Z" fill="#263238"/>
<path d="M412.23 137.46C412.4 137.85 413.79 137.56 415.46 137.64C417.13 137.72 418.46 138.09 418.69 137.72C418.77 137.55 418.51 137.19 417.95 136.85C417.204 136.431 416.369 136.195 415.514 136.16C414.659 136.125 413.808 136.293 413.03 136.65C412.44 136.94 412.16 137.28 412.23 137.46Z" fill="#263238"/>
<path d="M395.72 140.06C395.91 140.38 397.26 140.06 398.91 139.98C400.56 139.9 401.91 140.14 402.09 139.81C402.16 139.65 401.89 139.37 401.32 139.12C400.549 138.812 399.719 138.676 398.89 138.72C398.049 138.743 397.224 138.948 396.47 139.32C395.91 139.61 395.64 139.91 395.72 140.06Z" fill="#263238"/>
<path d="M380 131.29C380.058 131.079 380.158 130.882 380.294 130.71C380.43 130.538 380.598 130.396 380.79 130.29C381.619 129.913 382.534 129.764 383.44 129.86C386.21 129.809 388.91 128.988 391.24 127.49C392.328 125.927 393.542 124.455 394.87 123.09C398.02 119.85 400.6 117.64 403.28 116.56C406.74 115.17 412.53 114.56 416.14 115.56C419.75 116.56 422.99 119.44 423.5 123.13C425.5 121.42 428.56 121.44 431.03 122.43H431.09C433.83 123.43 435.39 126.31 436.2 129.11C437.01 131.91 437.36 134.91 438.84 137.42C439.15 137.94 439.52 138.57 439.25 139.12C439.125 139.319 438.942 139.476 438.726 139.568C438.51 139.661 438.271 139.686 438.04 139.64C437.577 139.541 437.14 139.343 436.76 139.06C437.07 139.8 437.37 140.53 437.68 141.26C436.679 141.434 435.651 141.369 434.68 141.07C434.176 143.566 433.525 146.031 432.73 148.45C431.706 148.329 430.673 148.581 429.82 149.16C428.82 150.03 428.43 151.66 426.82 151.04C426.01 150.72 425.27 149.04 424.99 148.19C423.181 142.652 422.584 136.789 423.24 131C422.102 129.789 420.745 128.805 419.24 128.1L419.36 128.21C416.46 127.21 413.18 126.21 410.43 127.57C408.3 128.63 407.05 130.84 405.43 132.57C403.964 134.214 402.178 135.544 400.183 136.477C398.187 137.411 396.022 137.929 393.82 138C393.67 140.92 393.91 145.05 393.76 148L391.3 143.32C391.107 142.996 390.93 142.662 390.77 142.32V142.22C390.524 141.649 390.247 141.091 389.94 140.55C389.6 140.824 389.172 140.966 388.736 140.953C388.299 140.939 387.882 140.769 387.559 140.474C387.237 140.18 387.03 139.779 386.977 139.346C386.924 138.912 387.028 138.474 387.27 138.11C387.516 137.77 387.813 137.47 388.15 137.22C387.793 137.568 387.352 137.816 386.869 137.94C386.387 138.065 385.881 138.061 385.4 137.93C384.924 137.785 384.509 137.487 384.22 137.082C383.93 136.677 383.783 136.187 383.8 135.69C383.841 135.356 383.969 135.038 384.171 134.768C384.373 134.498 384.641 134.285 384.95 134.15C383.662 134.253 382.373 133.968 381.25 133.33C380.45 132.9 379.73 132.21 380 131.29Z" fill="#263238"/>
<path d="M420.21 124.34C420.572 124.644 420.906 124.978 421.21 125.34C422.032 126.328 422.58 127.514 422.8 128.78C422.982 129.648 423.072 130.533 423.07 131.42C423.07 132.42 423 133.42 422.92 134.48C422.826 135.611 422.802 136.746 422.85 137.88C422.878 138.485 422.955 139.087 423.08 139.68C423.173 140.312 423.424 140.911 423.81 141.42C423.992 141.622 424.223 141.773 424.48 141.859C424.738 141.945 425.013 141.962 425.28 141.91C425.787 141.817 426.249 141.557 426.59 141.17C427.155 140.396 427.501 139.484 427.59 138.53H427.38C427.69 139.315 428.114 140.05 428.64 140.71C429.143 141.317 429.858 141.71 430.64 141.81C431.007 141.847 431.378 141.781 431.71 141.62C432.02 141.458 432.274 141.207 432.44 140.9C432.59 140.617 432.666 140.3 432.66 139.98C432.644 139.682 432.524 139.398 432.32 139.18L432.21 139.28C432.828 139.986 433.588 140.555 434.44 140.95C434.74 141.083 434.97 141.173 435.13 141.22L435.38 141.28L435.15 141.18C434.99 141.11 434.76 141.02 434.48 140.88C433.655 140.462 432.921 139.884 432.32 139.18L432.21 139.28C432.38 139.498 432.478 139.763 432.491 140.039C432.503 140.315 432.43 140.588 432.28 140.82C432.132 141.091 431.906 141.311 431.63 141.45C431.319 141.6 430.972 141.655 430.63 141.61C429.899 141.526 429.228 141.169 428.75 140.61C428.247 139.961 427.84 139.244 427.54 138.48L427.39 138.15L427.32 138.51C427.213 139.423 426.868 140.292 426.32 141.03C426.007 141.369 425.593 141.601 425.14 141.69C424.914 141.736 424.68 141.722 424.461 141.65C424.242 141.578 424.045 141.451 423.89 141.28C423.53 140.803 423.299 140.242 423.22 139.65C423.097 139.07 423.016 138.482 422.98 137.89C422.932 136.763 422.956 135.634 423.05 134.51C423.11 133.43 423.18 132.41 423.17 131.44C423.164 130.542 423.063 129.647 422.87 128.77C422.627 127.48 422.043 126.279 421.18 125.29C420.913 124.92 420.585 124.599 420.21 124.34Z" fill="#455A64"/>
<path d="M388.1 134.43L388.19 134.5C388.272 134.57 388.359 134.633 388.45 134.69C388.586 134.801 388.734 134.899 388.89 134.98C389.094 135.1 389.305 135.211 389.52 135.31C390.911 135.941 392.437 136.216 393.96 136.11C396.227 135.957 398.401 135.151 400.22 133.79C402.421 132.115 404.252 130.005 405.6 127.59C406.36 126.34 406.97 125.05 407.6 123.86C408.246 122.698 409.054 121.634 410 120.7C410.832 119.852 411.863 119.226 413 118.88C413.514 118.738 414.047 118.677 414.58 118.7C415.064 118.737 415.542 118.838 416 119C416.807 119.274 417.547 119.717 418.17 120.3C418.64 120.74 419.035 121.253 419.34 121.82C419.582 122.315 419.76 122.84 419.87 123.38C419.87 123.38 419.87 123.38 419.87 123.27C419.87 123.16 419.87 123.08 419.82 122.95C419.737 122.545 419.602 122.151 419.42 121.78C418.72 120.404 417.516 119.351 416.06 118.84C415.579 118.673 415.078 118.568 414.57 118.53C414.017 118.507 413.464 118.567 412.93 118.71C411.76 119.055 410.697 119.692 409.84 120.56C408.897 121.504 408.098 122.583 407.47 123.76C406.78 124.96 406.16 126.24 405.42 127.49C404.081 129.873 402.275 131.962 400.11 133.63C398.329 134.979 396.198 135.788 393.97 135.96C392.47 136.078 390.964 135.831 389.58 135.24C389.07 135.001 388.576 134.731 388.1 134.43Z" fill="#455A64"/>
<path d="M387.16 129.87C387.16 129.87 387.28 129.98 387.53 130.13C387.882 130.344 388.25 130.531 388.63 130.69C389.196 130.93 389.781 131.121 390.38 131.26C391.112 131.432 391.859 131.533 392.61 131.56C393.363 131.579 394.116 131.528 394.86 131.41C395.462 131.308 396.055 131.155 396.63 130.95C397.022 130.816 397.403 130.652 397.77 130.46C397.908 130.398 398.039 130.321 398.16 130.23C398.16 130.23 397.57 130.48 396.58 130.79C396.003 130.962 395.415 131.095 394.82 131.19C394.091 131.291 393.356 131.335 392.62 131.32C391.884 131.287 391.152 131.197 390.43 131.05C389.841 130.92 389.263 130.747 388.7 130.53C387.74 130.16 387.18 129.83 387.16 129.87Z" fill="#455A64"/>
<path d="M395.65 144.86C395.85 145.07 397.05 144.1 398.79 144.06C400.53 144.02 401.79 144.86 402.01 144.64C402.23 144.42 401.88 144.15 401.32 143.76C400.555 143.249 399.649 142.991 398.73 143.02C397.824 143.048 396.951 143.367 396.24 143.93C395.71 144.37 395.54 144.76 395.65 144.86Z" fill="#263238"/>
<path d="M397.42 149.77C397.443 150.135 397.607 150.477 397.878 150.723C398.149 150.97 398.504 151.101 398.87 151.09C399.05 151.091 399.228 151.057 399.394 150.988C399.561 150.92 399.712 150.819 399.838 150.691C399.965 150.564 400.065 150.412 400.132 150.245C400.199 150.078 400.233 149.9 400.23 149.72C400.204 149.354 400.038 149.012 399.766 148.766C399.494 148.52 399.137 148.389 398.77 148.4C398.591 148.4 398.414 148.436 398.249 148.505C398.084 148.574 397.934 148.675 397.808 148.802C397.683 148.93 397.584 149.081 397.517 149.247C397.45 149.413 397.417 149.591 397.42 149.77Z" fill="#263238"/>
<path d="M427.55 148.92C427.72 148.83 434.55 146.29 434.82 153.4C435.09 160.51 427.91 159.33 427.89 159.13C427.87 158.93 427.55 148.92 427.55 148.92Z" fill="#FFBF9D"/>
<path d="M430 156.35C430 156.35 430.13 156.43 430.34 156.52C430.639 156.636 430.971 156.636 431.27 156.52C431.717 156.21 432.073 155.785 432.302 155.292C432.53 154.798 432.623 154.252 432.57 153.71C432.569 153.1 432.429 152.498 432.16 151.95C432.082 151.727 431.95 151.527 431.775 151.368C431.601 151.209 431.389 151.097 431.16 151.04C431.017 151.012 430.869 151.033 430.74 151.1C430.611 151.168 430.509 151.277 430.45 151.41C430.36 151.61 430.45 151.75 430.37 151.77C430.29 151.79 430.22 151.66 430.26 151.36C430.297 151.183 430.388 151.023 430.52 150.9C430.713 150.749 430.955 150.674 431.2 150.69C431.494 150.737 431.771 150.859 432.005 151.042C432.24 151.226 432.424 151.466 432.54 151.74C432.875 152.353 433.05 153.041 433.05 153.74C433.05 155.17 432.39 156.54 431.37 156.88C431.182 156.943 430.981 156.964 430.784 156.939C430.587 156.915 430.397 156.847 430.23 156.74C430 156.52 429.93 156.36 430 156.35Z" fill="#FF9A6C"/>
<path d="M412.2 158.42C412.26 158.42 412.26 158.84 412.02 159.42C411.671 160.2 411.101 160.861 410.38 161.32C409.679 161.793 408.845 162.031 408 162C407.35 161.94 407 161.72 407 161.67C407 161.62 407.4 161.67 408 161.67C408.762 161.614 409.499 161.366 410.14 160.95C410.787 160.535 411.331 159.977 411.73 159.32C412 158.77 412.12 158.4 412.2 158.42Z" fill="#263238"/>
<path d="M448 439.59L450.12 463.59L457.64 482.15C457.763 482.473 457.817 482.819 457.796 483.165C457.775 483.51 457.682 483.847 457.521 484.154C457.36 484.46 457.136 484.729 456.863 484.942C456.591 485.155 456.276 485.308 455.94 485.39C455.542 485.509 455.123 485.534 454.713 485.465C454.304 485.395 453.916 485.233 453.58 484.99C449.29 481.87 433.82 470.39 433.65 468.9C433.43 466.96 429.48 443.33 429.48 443.33L448 439.59Z" fill="#455A64"/>
<path d="M456 485.42L433.28 466.19L433.51 467.97C433.66 468.97 433.68 469.47 434.36 470.08C440.398 475.549 446.741 480.671 453.36 485.42C453.767 485.61 454.211 485.709 454.66 485.709C455.109 485.709 455.553 485.61 455.96 485.42H456Z" fill="#263238"/>
<path d="M437.7 458.69C438.033 458.862 438.287 459.155 438.409 459.508C438.532 459.862 438.514 460.249 438.36 460.59C438.16 460.92 437.847 461.165 437.479 461.281C437.111 461.397 436.713 461.375 436.36 461.22C436.013 461.036 435.749 460.727 435.623 460.355C435.497 459.983 435.517 459.577 435.68 459.22C435.922 458.896 436.276 458.672 436.673 458.593C437.069 458.514 437.482 458.584 437.83 458.79" fill="white"/>
<path d="M448.94 475.52C449.09 475.58 449.52 474.26 450.94 473.44C451.842 473 452.813 472.719 453.81 472.61C453.81 472.55 453.48 472.4 452.88 472.38C452.088 472.373 451.31 472.584 450.63 472.99C449.967 473.374 449.432 473.944 449.09 474.63C448.87 475.15 448.87 475.51 448.94 475.52Z" fill="#263238"/>
<path d="M451.12 478.55C451.25 478.65 451.98 477.78 453.26 477.3C454.068 477.066 454.889 476.882 455.72 476.75C455.299 476.558 454.841 476.463 454.378 476.473C453.916 476.484 453.462 476.599 453.05 476.81C451.59 477.37 451 478.5 451.12 478.55Z" fill="#263238"/>
<path d="M445.09 471.75C446.091 470.955 447.151 470.236 448.26 469.6C449.46 469.109 450.693 468.705 451.95 468.39C450.588 468.185 449.196 468.446 448 469.13C445.94 470.12 445 471.69 445.09 471.75Z" fill="#263238"/>
<path d="M443.8 464.49C443.88 464.63 445.23 463.93 447.05 463.69C448.87 463.45 450.38 463.69 450.42 463.56C449.347 463.045 448.132 462.904 446.97 463.16C445.793 463.23 444.675 463.699 443.8 464.49Z" fill="#263238"/>
<path d="M443 457.45C444.052 456.922 445.199 456.609 446.374 456.53C447.548 456.451 448.727 456.607 449.84 456.99C449.84 456.93 449.57 456.66 448.94 456.4C448.111 456.075 447.219 455.938 446.33 456C445.443 456.05 444.58 456.307 443.81 456.75C443.21 457.09 442.94 457.4 443 457.45Z" fill="#263238"/>
<path d="M446.15 455.19C446.15 455.19 446.21 454.86 446.09 454.28C445.914 453.454 445.574 452.672 445.09 451.98C444.761 451.433 444.262 451.008 443.67 450.77C443.464 450.709 443.246 450.708 443.04 450.768C442.834 450.829 442.65 450.947 442.51 451.11C442.391 451.27 442.305 451.453 442.257 451.647C442.209 451.841 442.2 452.042 442.23 452.24C442.403 453.064 442.857 453.802 443.513 454.329C444.17 454.856 444.988 455.139 445.83 455.13C446.671 455.143 447.497 454.911 448.207 454.462C448.918 454.012 449.482 453.365 449.83 452.6C449.909 452.413 449.945 452.211 449.935 452.008C449.924 451.805 449.868 451.608 449.77 451.43C449.642 451.257 449.465 451.125 449.262 451.052C449.059 450.979 448.839 450.968 448.63 451.02C448.025 451.215 447.478 451.559 447.04 452.02C446.418 452.593 445.9 453.269 445.51 454.02C445.349 454.285 445.246 454.582 445.21 454.89C445.781 453.915 446.492 453.029 447.32 452.26C447.713 451.872 448.193 451.584 448.72 451.42C448.833 451.388 448.954 451.392 449.065 451.432C449.176 451.471 449.272 451.544 449.34 451.64C449.395 451.761 449.423 451.892 449.423 452.025C449.423 452.158 449.395 452.289 449.34 452.41C449.022 453.059 448.528 453.605 447.914 453.987C447.301 454.369 446.593 454.571 445.87 454.57C445.157 454.573 444.463 454.336 443.901 453.897C443.339 453.458 442.94 452.843 442.77 452.15C442.721 451.876 442.779 451.594 442.93 451.36C443.005 451.267 443.106 451.2 443.221 451.166C443.335 451.132 443.457 451.133 443.57 451.17C444.071 451.372 444.5 451.72 444.8 452.17C445.433 453.085 445.89 454.109 446.15 455.19Z" fill="#263238"/>
<path d="M387.46 440.83L388.4 461.18C388.4 461.18 366.71 468.92 366.5 472.7L408.55 472.39L408.46 440.62L387.46 440.83Z" fill="#455A64"/>
<path d="M401.39 459.37C401.786 459.468 402.13 459.712 402.353 460.054C402.575 460.395 402.66 460.808 402.59 461.21C402.469 461.604 402.205 461.939 401.849 462.148C401.494 462.357 401.073 462.426 400.67 462.34C400.253 462.237 399.89 461.98 399.656 461.619C399.422 461.259 399.334 460.823 399.41 460.4C399.575 459.995 399.888 459.667 400.284 459.481C400.681 459.296 401.133 459.267 401.55 459.4" fill="#E0E0E0"/>
<path d="M408.55 472.39L408.41 469.19L368.14 470.68C368.14 470.68 366.28 471.46 366.5 472.68L408.55 472.39Z" fill="#263238"/>
<path d="M387.72 461C387.72 461.19 388.72 461.27 389.72 461.88C390.72 462.49 391.28 463.3 391.47 463.22C391.66 463.14 391.34 462.03 390.1 461.31C388.86 460.59 387.67 460.81 387.72 461Z" fill="#263238"/>
<path d="M383.32 462.73C383.32 462.92 384.17 463.24 384.87 464.05C385.57 464.86 385.79 465.73 385.99 465.72C386.19 465.71 386.32 464.61 385.42 463.62C384.52 462.63 383.33 462.55 383.32 462.73Z" fill="#263238"/>
<path d="M380.86 467.71C381.05 467.71 381.32 466.79 380.79 465.71C380.26 464.63 379.29 464.25 379.2 464.41C379.11 464.57 379.72 465.13 380.14 466C380.56 466.87 380.66 467.7 380.86 467.71Z" fill="#263238"/>
<path d="M388.05 456.32C388.14 456.5 389.05 456.23 390.24 456.32C391.43 456.41 392.31 456.72 392.41 456.56C392.51 456.4 391.65 455.71 390.28 455.65C388.91 455.59 388 456.17 388.05 456.32Z" fill="#263238"/>
<path d="M380.14 294.68C380.14 295.85 385.02 458.53 385.02 458.53H411.02L416.29 319.37C416.29 319.37 422.44 392.13 422.44 393.7C422.44 395.27 427.86 459.31 427.86 459.31L451.96 457.46L450.37 311L447.43 289.52L380.14 294.68Z" fill="#263238"/>
<path d="M419 314.22C418.671 314.407 418.317 314.548 417.95 314.64C417.26 314.88 416.25 315.21 415.01 315.64L414.78 315.71V315.48C414.64 313.53 414.47 310.91 414.32 308.04C414.15 304.93 414.03 302.12 413.97 300.04C413.97 299.04 413.92 298.19 413.92 297.62C413.89 297.322 413.911 297.021 413.98 296.73C414.063 297.016 414.11 297.312 414.12 297.61C414.19 298.18 414.26 299.01 414.33 300.02C414.49 302.02 414.67 304.87 414.83 308.02C414.99 310.89 415.1 313.51 415.16 315.47L414.91 315.31C416.17 314.96 417.19 314.68 417.91 314.5C418.263 314.371 418.628 314.278 419 314.22Z" fill="#455A64"/>
<path d="M417 297.31C417 297.31 417.08 297.18 417.35 297.09C417.73 296.99 418.133 297.025 418.49 297.19C418.759 297.289 418.989 297.471 419.146 297.711C419.302 297.95 419.377 298.234 419.36 298.52C419.326 298.881 419.175 299.222 418.929 299.489C418.684 299.757 418.357 299.936 418 300C417.636 300.054 417.265 300.008 416.926 299.865C416.587 299.722 416.295 299.488 416.08 299.19C415.93 298.959 415.85 298.69 415.85 298.415C415.85 298.14 415.93 297.871 416.08 297.64C416.287 297.33 416.589 297.095 416.94 296.97C417.2 296.88 417.35 296.9 417.36 296.92C417.37 296.94 416.77 297.11 416.41 297.79C416.304 297.971 416.254 298.179 416.264 298.389C416.275 298.599 416.346 298.8 416.47 298.97C416.632 299.184 416.848 299.351 417.096 299.453C417.344 299.555 417.615 299.588 417.88 299.55C418.128 299.502 418.355 299.382 418.534 299.204C418.712 299.025 418.832 298.798 418.88 298.55C418.9 298.345 418.855 298.139 418.753 297.96C418.651 297.781 418.496 297.638 418.31 297.55C417.91 297.333 417.451 297.249 417 297.31Z" fill="#455A64"/>
<path d="M428.94 299C428.8 299 428.6 298.3 428.5 297.42C428.4 296.54 428.43 295.81 428.57 295.8C428.71 295.79 428.91 296.49 429.01 297.37C429.11 298.25 429.08 299 428.94 299Z" fill="#455A64"/>
<path d="M430.74 298.81C430.6 298.81 430.48 298.06 430.48 297.13C430.48 296.2 430.58 295.45 430.73 295.45C430.88 295.45 430.99 296.2 430.99 297.13C430.99 298.06 430.89 298.81 430.74 298.81Z" fill="#455A64"/>
<path d="M399.41 299.93C399.27 299.93 399.05 299.1 398.92 298.05C398.79 297 398.8 296.12 398.92 296.11C399.04 296.1 399.28 296.94 399.41 298C399.54 299.06 399.55 299.92 399.41 299.93Z" fill="#455A64"/>
<path d="M401.6 300.09C401.138 299.53 400.909 298.814 400.96 298.09C400.852 297.39 401.013 296.676 401.41 296.09C401.56 296.09 401.41 297.01 401.48 298.09C401.55 299.17 401.74 300.05 401.6 300.09Z" fill="#455A64"/>
<path d="M393.38 297.92C393.391 298.16 393.36 298.4 393.29 298.63C393.165 299.279 392.991 299.917 392.77 300.54C392.028 302.64 390.94 304.6 389.55 306.34C388.106 308.134 386.393 309.693 384.47 310.96C383.879 311.35 383.264 311.704 382.63 312.02C382.399 312.15 382.154 312.254 381.9 312.33C381.9 312.27 382.84 311.75 384.27 310.72C386.109 309.414 387.759 307.86 389.17 306.1C390.533 304.385 391.641 302.482 392.46 300.45C393.07 298.9 393.3 297.9 393.38 297.92Z" fill="#455A64"/>
<path d="M449.58 308.88C449.323 308.956 449.058 308.997 448.79 309C448.064 309.057 447.336 309.057 446.61 309C444.236 308.772 441.952 307.976 439.95 306.68C438.054 305.438 436.524 303.712 435.52 301.68C435.228 301.089 435 300.469 434.84 299.83C434.759 299.606 434.722 299.368 434.73 299.13C434.81 299.13 435.03 300.13 435.82 301.56C436.875 303.494 438.39 305.139 440.23 306.35C442.169 307.602 444.362 308.408 446.65 308.71C448.44 308.91 449.57 308.8 449.58 308.88Z" fill="#455A64"/>
<path d="M407.23 391.26C407.23 391.37 402.89 390.43 397.61 389.18C392.33 387.93 388.07 386.81 388.11 386.7C388.15 386.59 392.45 387.52 397.73 388.78C403.01 390.04 407.26 391.15 407.23 391.26Z" fill="#455A64"/>
<path d="M449.11 385.34C449.17 385.44 445.42 387.39 440.74 389.71C436.06 392.03 432.2 393.82 432.14 393.71C432.08 393.6 435.83 391.65 440.51 389.34C445.19 387.03 449.05 385.24 449.11 385.34Z" fill="#455A64"/>
<path d="M367.52 239.59L371.07 244.04V236.39H382.27C382.27 236.39 383.51 253.9 383.27 257.63C383.004 259.574 382.545 261.487 381.9 263.34C381.565 264.418 380.959 265.392 380.138 266.168C379.318 266.944 378.311 267.495 377.216 267.768C376.12 268.042 374.973 268.028 373.884 267.729C372.795 267.43 371.802 266.855 371 266.06C369.746 264.841 368.577 263.538 367.5 262.16C362.5 255.76 354.26 240.16 354.26 240.16L362.9 235L367.52 239.59Z" fill="#FFBF9D"/>
<path d="M366.81 238.77C367.233 239.481 367.722 240.15 368.27 240.77C369.27 241.94 370.53 243.55 372.02 245.29C373.51 247.03 374.93 248.57 376.02 249.62C376.572 250.226 377.213 250.745 377.92 251.16C377.413 250.525 376.865 249.924 376.28 249.36C375.28 248.26 373.9 246.69 372.41 244.95C369.46 241.41 366.94 238.65 366.81 238.77Z" fill="#FF9A6C"/>
<path d="M393.06 185.8L404.87 181.16L426.62 179.93L436.84 183.82L422.83 191.6L410.75 191.16L393.06 185.8Z" fill="#FFBF9D"/>
<path d="M379.13 296.9C380.2 297.08 451.46 300.11 451.46 300.11L449 236L448.79 223.42L444.79 185.31C444.79 185.31 434.13 181.64 428.7 179.89C428.7 179.89 422.98 185.89 412.1 185.69C401.47 185.54 399.25 183.14 399.25 183.14L384.39 188.84C384.39 188.84 373.82 192.63 372 197.31C370.18 201.99 367 227.86 367 227.86H382.41L382 273.83L379.13 296.9Z" fill="#455A64"/>
<g opacity="0.2">
<path d="M423.94 211.38L426.15 227.54L436.84 232.31L444.74 225.58V210.58L423.94 211.38Z" fill="black"/>
</g>
<path d="M444.46 216C444.46 216.13 440.02 216.24 434.54 216.24C429.06 216.24 424.61 216.13 424.61 216C427.914 215.749 431.228 215.666 434.54 215.75C437.849 215.666 441.16 215.749 444.46 216Z" fill="#263238"/>
<path d="M374.33 204C374.381 204.14 374.421 204.284 374.45 204.43C374.52 204.75 374.61 205.15 374.73 205.66C375.114 207.203 375.588 208.722 376.15 210.21C376.86 212.12 377.86 214.37 379.09 216.89C380.32 219.41 381.3 222.42 382.39 225.62C382.39 229.46 382.39 233.62 382.31 238.05C382.21 247.85 382.11 256.72 382.05 263.19C381.99 266.37 381.95 268.96 381.91 270.81C381.91 271.67 381.89 272.36 381.85 272.88C381.855 273.121 381.838 273.362 381.8 273.6C381.783 273.357 381.783 273.113 381.8 272.87C381.8 272.363 381.8 271.673 381.8 270.8C381.8 268.96 381.8 266.36 381.8 263.18C381.8 256.71 381.88 247.84 381.93 238.05C381.93 233.66 382.01 229.46 382.04 225.62V225.69C380.97 222.49 379.94 219.52 378.82 216.97C377.751 214.774 376.796 212.525 375.96 210.23C375.419 208.728 374.982 207.191 374.65 205.63C374.55 205.08 374.47 204.63 374.43 204.37C374.385 204.25 374.352 204.126 374.33 204Z" fill="#263238"/>
<path d="M449.88 196.52C449.915 196.976 449.915 197.434 449.88 197.89C449.88 198.89 449.8 200.11 449.74 201.61C449.61 204.83 449.44 209.13 449.25 213.88C449.06 218.63 448.84 222.94 448.7 226.16C448.61 227.66 448.54 228.91 448.48 229.88C448.478 230.337 448.431 230.792 448.34 231.24C448.304 230.784 448.304 230.326 448.34 229.87C448.34 228.87 448.34 227.65 448.41 226.15C448.49 223 448.63 218.66 448.83 213.87C449.03 209.08 449.25 204.73 449.45 201.6C449.55 200.03 449.65 198.76 449.74 197.88C449.747 197.423 449.793 196.968 449.88 196.52Z" fill="#263238"/>
<g opacity="0.3">
<path d="M374.37 206.35C374.099 213.387 376.614 220.247 381.37 225.44C379.92 218.83 376.3 212.68 374.37 206.35Z" fill="black"/>
</g>
<g opacity="0.3">
<path d="M405.67 269.78C409.02 269.334 412.076 267.632 414.22 265.02C416.476 262.501 418.408 259.709 419.97 256.71C421.986 252.631 423.131 248.176 423.33 243.63C419.18 254.76 413.1 263.56 405.67 269.78Z" fill="black"/>
</g>
<path d="M424.65 238.78C424.643 238.918 424.623 239.056 424.59 239.19C424.52 239.51 424.43 239.89 424.33 240.35C424.23 240.81 424.07 241.46 423.85 242.16C423.63 242.86 423.42 243.66 423.1 244.53C422.4 246.577 421.578 248.58 420.64 250.53C418.346 255.303 415.401 259.735 411.89 263.7C410.457 265.318 408.92 266.841 407.29 268.26C406.62 268.89 405.95 269.39 405.38 269.85C404.81 270.31 404.31 270.68 403.88 270.97L402.88 271.64C402.65 271.78 402.53 271.86 402.52 271.84C402.608 271.735 402.709 271.64 402.82 271.56L403.75 270.82C404.16 270.52 404.65 270.13 405.2 269.65C405.75 269.17 406.4 268.65 407.06 268.02C408.639 266.57 410.138 265.034 411.55 263.42C413.26 261.428 414.853 259.337 416.32 257.16C417.754 254.966 419.063 252.692 420.24 250.35C421.186 248.426 422.03 246.453 422.77 244.44C423.11 243.59 423.35 242.79 423.58 242.1C423.81 241.41 424 240.81 424.14 240.32C424.28 239.83 424.38 239.5 424.48 239.19C424.58 238.88 424.63 238.77 424.65 238.78Z" fill="#263238"/>
<path d="M422.59 218.72C422.575 218.942 422.544 219.162 422.5 219.38C422.42 219.85 422.31 220.47 422.18 221.24C422.05 222.01 421.85 223.03 421.56 224.16C421.27 225.29 421.01 226.6 420.56 228C420.36 228.7 420.14 229.44 419.91 230.21C419.68 230.98 419.38 231.76 419.1 232.57C418.57 234.22 417.85 235.92 417.1 237.72C413.815 245.489 409.401 252.731 404 259.21C402.73 260.67 401.54 262.09 400.32 263.31C399.72 263.93 399.16 264.55 398.58 265.1C398 265.65 397.45 266.19 396.91 266.69C395.91 267.69 394.83 268.56 393.91 269.32C392.99 270.08 392.25 270.71 391.59 271.2L390.08 272.34C389.915 272.484 389.734 272.609 389.54 272.71C389.686 272.549 389.847 272.401 390.02 272.27L391.47 271.06C392.11 270.55 392.89 269.92 393.74 269.13C394.59 268.34 395.62 267.5 396.65 266.45L398.29 264.85C398.86 264.29 399.41 263.67 400 263.05C401.21 261.82 402.38 260.4 403.64 258.93C408.994 252.461 413.399 245.262 416.72 237.55C417.46 235.76 418.18 234.08 418.72 232.45C419.01 231.63 419.31 230.86 419.55 230.1C419.79 229.34 420.01 228.61 420.23 227.91C420.69 226.52 420.98 225.23 421.29 224.1C421.6 222.97 421.82 222 421.98 221.2C422.14 220.4 422.29 219.83 422.39 219.36C422.433 219.14 422.5 218.925 422.59 218.72Z" fill="#263238"/>
<path d="M366.28 198.79L393.72 240.51C393.851 240.707 393.923 240.938 393.926 241.174C393.929 241.411 393.864 241.644 393.738 241.844C393.613 242.045 393.432 242.205 393.218 242.305C393.003 242.406 392.764 242.442 392.53 242.41L360.93 238.41C360.764 238.387 360.604 238.331 360.46 238.245C360.315 238.159 360.19 238.045 360.09 237.91L329.91 196.69C329.76 196.499 329.67 196.269 329.65 196.028C329.63 195.786 329.681 195.544 329.797 195.331C329.913 195.119 330.089 194.944 330.302 194.83C330.516 194.717 330.759 194.668 331 194.69L363.51 197.09C364.071 197.141 364.614 197.321 365.094 197.616C365.575 197.911 365.98 198.312 366.28 198.79Z" fill="#E0E0E0"/>
<path d="M366.28 198.79C366.212 198.654 366.128 198.526 366.03 198.41C365.752 198.065 365.413 197.774 365.03 197.55C364.379 197.21 363.654 197.035 362.92 197.04L360 196.8L341.26 195.33L335.05 194.85L331.75 194.6C331.46 194.6 331.21 194.6 330.88 194.6C330.542 194.611 330.22 194.742 329.97 194.97C329.716 195.201 329.553 195.515 329.509 195.856C329.465 196.197 329.543 196.542 329.73 196.83L338.51 208.88C344.71 217.35 351.51 226.66 358.66 236.44C359.12 237.05 359.53 237.64 360.03 238.28C360.184 238.45 360.376 238.58 360.59 238.66C360.787 238.729 360.992 238.769 361.2 238.78L362.32 238.92L366.74 239.48L375.38 240.56L391.72 242.56C392.06 242.56 392.34 242.65 392.72 242.67C392.915 242.671 393.108 242.634 393.288 242.56C393.468 242.487 393.632 242.378 393.77 242.24C394.032 241.971 394.185 241.615 394.2 241.24C394.185 240.874 394.052 240.523 393.82 240.24L391.7 237L387.7 231L380.54 220.17C376.16 213.58 372.62 208.23 370.15 204.52L367.3 200.27C366.98 199.81 366.73 199.44 366.54 199.18C366.46 199.05 366.369 198.926 366.27 198.81C366.339 198.948 366.415 199.081 366.5 199.21L367.21 200.33C367.85 201.33 368.78 202.78 369.97 204.63L380.23 220.38L387.34 231.24L391.34 237.29L393.42 240.46C393.6 240.67 393.705 240.934 393.72 241.21C393.71 241.472 393.603 241.722 393.42 241.91C393.234 242.095 392.982 242.199 392.72 242.2C392.45 242.2 392.08 242.12 391.77 242.09L375.4 240L366.76 238.91L362.34 238.35L361.23 238.21C361.064 238.196 360.9 238.166 360.74 238.12C360.599 238.066 360.473 237.98 360.37 237.87C359.93 237.27 359.49 236.68 359.05 236.07C351.89 226.31 345.05 217.01 338.87 208.54C335.76 204.32 332.82 200.3 330.06 196.54C329.957 196.391 329.896 196.218 329.884 196.037C329.872 195.857 329.908 195.677 329.99 195.516C330.073 195.355 330.197 195.219 330.35 195.123C330.503 195.027 330.679 194.974 330.86 194.97C331.09 194.97 331.41 194.97 331.68 195.02L334.98 195.26L341.2 195.7L360 197L362.94 197.2C363.657 197.176 364.368 197.331 365.01 197.65C365.51 197.934 365.944 198.323 366.28 198.79Z" fill="#263238"/>
<path d="M329.91 196.72C330.126 196.776 330.347 196.809 330.57 196.82L332.49 197.02L339.63 197.65L363.91 199.65L363.72 199.54C365.24 201.8 366.81 204.14 368.38 206.54C374.79 216.39 380.38 225.45 384.61 231.89C386.71 235.12 388.46 237.7 389.68 239.48L391.1 241.48C391.253 241.724 391.431 241.952 391.63 242.16C391.498 241.905 391.351 241.658 391.19 241.42L389.85 239.33L384.92 231.66C380.78 225.17 375.23 216.09 368.82 206.23C367.25 203.8 365.67 201.46 364.14 199.23L364.07 199.13H364L339.71 197.33L332.56 196.85L330.63 196.74C330.391 196.715 330.15 196.709 329.91 196.72Z" fill="#263238"/>
<path d="M348.72 203.09C348.739 203.007 348.774 202.929 348.824 202.86C348.873 202.79 348.937 202.732 349.01 202.688C349.082 202.644 349.164 202.616 349.248 202.604C349.332 202.592 349.418 202.598 349.5 202.62C349.822 202.693 350.117 202.856 350.35 203.09C350.498 203.226 350.595 203.409 350.622 203.608C350.65 203.807 350.606 204.009 350.5 204.18C350.19 204.57 349.5 204.42 349.16 204.1C349.007 203.983 348.886 203.829 348.809 203.652C348.732 203.475 348.701 203.282 348.72 203.09Z" fill="white"/>
<path d="M363.48 226.47C363.48 226.47 364.72 223.47 361.56 223.11C357.739 222.911 353.911 222.911 350.09 223.11C350.09 223.11 345.54 223.59 346.5 226.85C346.5 226.85 343.82 229.25 345.26 231.85C346.7 234.45 347.26 233.67 347.26 233.67C347.26 233.67 346.88 236.84 349.26 237.31C349.26 237.31 351.86 240.38 354.26 240.19C356.66 240 366.81 235.11 367.48 234.19C368.15 233.27 369.11 232.69 368.54 231.62C368.54 231.62 369.78 228.81 367.1 228.38C367.12 228.33 366.93 226 363.48 226.47Z" fill="#FFBF9D"/>
<path d="M349.06 227.54C349.763 227.687 350.483 227.74 351.2 227.7C352.52 227.7 354.34 227.7 356.35 227.7C358.082 227.75 359.815 227.65 361.53 227.4C362.89 227.08 363.43 226.28 363.37 226.26C362.783 226.632 362.132 226.893 361.45 227.03C360.2 227.24 358.35 227.11 356.34 227.18C354.33 227.25 352.51 227.27 351.19 227.33C350.474 227.314 349.759 227.385 349.06 227.54Z" fill="#FF9A6C"/>
<path d="M351.32 232.34C351.531 232.464 351.767 232.542 352.01 232.57C352.668 232.704 353.341 232.747 354.01 232.7C354.986 232.626 355.951 232.448 356.89 232.17C357.95 231.88 359.08 231.47 360.27 231.11C361.376 230.744 362.52 230.506 363.68 230.4C364.683 230.493 365.69 230.292 366.58 229.82C366.927 229.585 367.174 229.228 367.27 228.82C367.334 228.515 367.292 228.197 367.15 227.92C366.9 227.47 366.56 227.44 366.57 227.46C366.58 227.48 366.81 227.6 366.96 228.01C367.056 228.288 367.049 228.591 366.941 228.864C366.833 229.138 366.63 229.363 366.37 229.5C365.516 229.876 364.577 230.018 363.65 229.91C362.449 229.985 361.263 230.213 360.12 230.59L356.76 231.7C355.852 231.982 354.922 232.19 353.98 232.32C353.095 232.38 352.206 232.387 351.32 232.34Z" fill="#FF9A6C"/>
<path d="M354.72 236.39C355.448 236.348 356.168 236.21 356.86 235.98C358.16 235.65 359.94 235.14 361.86 234.51C363.78 233.88 365.54 233.23 366.78 232.72C367.484 232.499 368.157 232.186 368.78 231.79C368.72 231.65 365.6 232.79 361.78 234C357.96 235.21 354.68 236.25 354.72 236.39Z" fill="#FF9A6C"/>
<path d="M353.91 240.15C354.507 240.202 355.109 240.134 355.68 239.95C357.075 239.611 358.432 239.132 359.73 238.52C361.25 237.83 362.58 237.12 363.54 236.61C364.088 236.378 364.6 236.068 365.06 235.69C363.145 236.309 361.287 237.095 359.51 238.04C356.52 239.48 353.89 240 353.91 240.15Z" fill="#FF9A6C"/>
<path d="M454.93 211.56C454.93 211.56 448.47 237.44 440.4 247C432.58 256.26 420.33 252 416.09 240C411.85 228 404.29 200.69 404.29 200.69L413.57 193.59L429.57 224.68L436.8 203.49L454.93 211.56Z" fill="#FFBF9D"/>
<path d="M404.72 201.43L397.91 191.56C396.919 191.346 395.948 191.045 395.01 190.66C394.24 190.21 393.48 186.29 393.5 185.53C393.52 184.77 392.18 182.98 392.72 182.47C393.26 181.96 395.08 181.93 394.98 181.2C394.98 181.04 393.63 179.4 394.69 178.2C395.274 177.814 395.925 177.539 396.61 177.39L396.5 173.62C396.5 173.62 398.5 169.18 400.61 170.79C400.61 170.79 408.44 176.79 409.23 177.79C410.02 178.79 413.04 191.28 413.57 193.63" fill="#FFBF9D"/>
<path d="M413.57 193.61C413.559 193.387 413.526 193.166 413.47 192.95C413.36 192.47 413.23 191.85 413.06 191.07C412.7 189.43 412.15 187.07 411.41 184.16C411.03 182.7 410.62 181.16 410.09 179.41C409.96 178.99 409.82 178.56 409.64 178.12C409.433 177.672 409.117 177.283 408.72 176.99C408 176.36 407.25 175.74 406.48 175.11C404.93 173.86 403.28 172.56 401.57 171.23C401.138 170.846 400.653 170.526 400.13 170.28C399.824 170.207 399.506 170.207 399.2 170.28C398.894 170.353 398.61 170.497 398.37 170.7C397.477 171.477 396.764 172.439 396.28 173.52V173.58C396.28 173.95 396.28 174.34 396.28 174.73C396.28 175.61 396.28 176.49 396.36 177.35L396.54 177.11C396.068 177.224 395.606 177.378 395.16 177.57C394.911 177.673 394.684 177.823 394.49 178.01C394.318 178.212 394.188 178.446 394.11 178.7C393.982 179.199 394.024 179.727 394.23 180.2C394.313 180.426 394.417 180.643 394.54 180.85L394.71 181.14V181.21C394.715 181.233 394.715 181.257 394.71 181.28C394.71 181.36 394.51 181.48 394.32 181.55C394.13 181.62 393.92 181.69 393.71 181.76C393.493 181.818 393.279 181.888 393.07 181.97C392.808 182.046 392.579 182.208 392.42 182.43C392.316 182.686 392.316 182.974 392.42 183.23C392.48 183.446 392.557 183.656 392.65 183.86C392.82 184.26 393.01 184.64 393.15 185.01C393.221 185.178 393.262 185.358 393.27 185.54C393.274 185.755 393.294 185.968 393.33 186.18C393.39 186.59 393.46 186.99 393.55 187.39C393.706 188.161 393.916 188.919 394.18 189.66C394.307 190.047 394.511 190.404 394.78 190.71C395.107 190.921 395.464 191.08 395.84 191.18C396.53 191.39 397.21 191.56 397.84 191.71L397.73 191.64L402.73 198.8L404.13 200.74C404.285 200.974 404.459 201.195 404.65 201.4C404.522 201.151 404.378 200.911 404.22 200.68L402.9 198.68C401.71 196.91 400.04 194.44 397.99 191.42V191.36H398C397.36 191.2 396.69 191.02 396 190.81C395.68 190.719 395.374 190.584 395.09 190.41C394.875 190.147 394.712 189.845 394.61 189.52C394.355 188.796 394.154 188.054 394.01 187.3C393.93 186.91 393.86 186.52 393.8 186.12C393.8 185.93 393.8 185.72 393.8 185.54C393.791 185.307 393.744 185.077 393.66 184.86C393.51 184.45 393.32 184.07 393.16 183.68C393.073 183.497 393.002 183.306 392.95 183.11C392.896 182.961 392.896 182.799 392.95 182.65C393.065 182.53 393.21 182.444 393.37 182.4C393.569 182.321 393.773 182.255 393.98 182.2C394.19 182.13 394.41 182.07 394.63 181.98C394.905 181.895 395.135 181.704 395.27 181.45C395.307 181.368 395.324 181.279 395.32 181.19C395.317 181.127 395.3 181.065 395.27 181.01V180.93L395.1 180.64C394.993 180.45 394.899 180.253 394.82 180.05C394.659 179.675 394.624 179.257 394.72 178.86C394.773 178.668 394.869 178.49 395 178.34C395.151 178.208 395.323 178.103 395.51 178.03C395.931 177.849 396.366 177.702 396.81 177.59L396.99 177.54V177.35C396.99 176.49 396.94 175.62 396.91 174.74C396.91 174.35 396.91 173.95 396.91 173.59V173.7C397.355 172.691 398.013 171.79 398.84 171.06C399.017 170.896 399.232 170.778 399.466 170.717C399.7 170.656 399.945 170.654 400.18 170.71C400.646 170.939 401.08 171.228 401.47 171.57C403.19 172.9 404.84 174.19 406.39 175.43C407.17 176.05 407.92 176.66 408.63 177.27C408.989 177.525 409.276 177.87 409.46 178.27C409.63 178.68 409.77 179.11 409.91 179.52C410.44 181.2 410.91 182.79 411.27 184.23C412.02 187.1 412.64 189.43 413.07 191.1C413.28 191.87 413.44 192.49 413.56 192.96C413.541 193.176 413.544 193.394 413.57 193.61Z" fill="#FF9A6C"/>
<path d="M396.61 177.39C396.61 177.47 397.4 177.39 398.61 177.53C399.334 177.642 400.049 177.805 400.75 178.02C401.669 178.15 402.601 178.15 403.52 178.02C404.308 177.909 405.112 177.979 405.869 178.225C406.626 178.472 407.317 178.887 407.89 179.44C408.333 179.932 408.688 180.497 408.94 181.11C408.945 180.754 408.876 180.4 408.738 180.072C408.601 179.743 408.397 179.447 408.14 179.2C407.62 178.628 406.977 178.18 406.26 177.89C405.379 177.548 404.428 177.428 403.49 177.54C402.61 177.65 401.72 177.65 400.84 177.54C400.118 177.339 399.378 177.208 398.63 177.15C397.947 177.096 397.261 177.177 396.61 177.39Z" fill="#FF9A6C"/>
<path d="M399.38 177.18C399.49 177.24 399.81 176.78 399.77 176.13C399.73 175.48 399.36 175.07 399.26 175.13C399.16 175.19 399.26 175.63 399.26 176.13C399.26 176.63 399.25 177.13 399.38 177.18Z" fill="#FF9A6C"/>
<path d="M394.74 181.34C396.718 181.529 398.715 181.373 400.64 180.88C401.339 180.651 402.075 180.556 402.81 180.6C403.379 180.725 403.881 181.057 404.22 181.53C404.515 182.001 404.775 182.492 405 183C405.035 182.394 404.862 181.795 404.51 181.3C404.15 180.718 403.575 180.301 402.91 180.14C402.116 180.047 401.311 180.125 400.55 180.37C397.38 181.09 394.74 181.2 394.74 181.34Z" fill="#FF9A6C"/>
<path d="M393.7 184.9C394.177 185.011 394.673 185.011 395.15 184.9C396.04 184.8 397.24 184.49 398.54 184.23C399.14 184.096 399.755 184.036 400.37 184.05C400.848 184.058 401.31 184.227 401.68 184.53C402.011 184.836 402.239 185.238 402.33 185.68C402.33 185.68 402.42 185.55 402.41 185.28C402.369 184.899 402.196 184.545 401.92 184.28C401.515 183.881 400.978 183.642 400.41 183.61C399.74 183.564 399.066 183.614 398.41 183.76C397.07 184.02 395.91 184.38 395.05 184.56C394.59 184.627 394.137 184.741 393.7 184.9Z" fill="#FF9A6C"/>
<path d="M396 187.72C395.92 187.78 396.59 188.48 397.81 188.48L397.57 188.27C397.57 188.48 397.57 188.69 397.64 188.9C397.672 189.757 397.862 190.601 398.2 191.39C398.333 190.546 398.306 189.684 398.12 188.85L398.03 188.22V188H397.82C397.205 187.975 396.594 187.881 396 187.72Z" fill="#FF9A6C"/>
<path d="M444.71 185.35C444.71 185.35 457.94 188.55 457.91 206.1C457.88 223.65 453.91 232.31 453.91 232.31L429.52 219L435 205.37L444.71 185.35Z" fill="#455A64"/>
<path d="M453.91 232.31C453.734 232.259 453.566 232.185 453.41 232.09L451.99 231.37L446.79 228.63L429.4 219.26L429.2 219.16L429.28 218.95L430.59 215.53C432.15 211.48 433.59 207.62 434.99 204.11C435.67 202.36 436.31 200.69 436.92 199.11C437.452 197.642 438.098 196.218 438.85 194.85C439.855 192.803 441.37 191.05 443.25 189.76C443.778 189.43 444.36 189.196 444.97 189.07C445.125 189.037 445.282 189.017 445.44 189.01H445.61C444.81 189.176 444.047 189.488 443.36 189.93C441.556 191.25 440.114 193.004 439.17 195.03C438.451 196.393 437.833 197.807 437.32 199.26C436.73 200.83 436.1 202.5 435.43 204.26L431.07 215.7L429.76 219.12L429.64 218.8L447 228.33L452.12 231.21L453.49 232.01C453.641 232.094 453.781 232.195 453.91 232.31Z" fill="#263238"/>
</svg>
